<svg version="1.1" xmlns="http://www.w3.org/2000/svg" style="display: block;" viewBox="0 0 2432 2432" width="1792" height="2432" preserveAspectRatio="none" xmlns:c2pa="http://c2pa.org/manifest"><metadata><c2pa:manifest>AAAzs2p1bWIAAAAeanVtZGMycGEAEQAQgAAAqgA4m3EDYzJwYQAAADONanVtYgAAAEdqdW1kYzJtYQARABCAAACqADibcQN1cm46YzJwYTpiZDc4MmI0MC0wYjQ2LTRiMjAtYjBmZC03YzBiMWQ2YjM0NzgAAAAB4mp1bWIAAAApanVtZGMyYXMAEQAQgAAAqgA4m3EDYzJwYS5hc3NlcnRpb25zAAAAAO1qdW1iAAAAQWp1bWRjYm9yABEAEIAAAKoAOJtxE2MycGEuYWN0aW9ucy52MgAAAAAYYzJzaBlM1JDDw4QqPHkTjTqM22UAAACkY2JvcqFnYWN0aW9uc4GjZmFjdGlvbmxjMnBhLmNyZWF0ZWRxZGlnaXRhbFNvdXJjZVR5cGV4Rmh0dHA6Ly9jdi5pcHRjLm9yZy9uZXdzY29kZXMvZGlnaXRhbHNvdXJjZXR5cGUvdHJhaW5lZEFsZ29yaXRobWljTWVkaWFrZGVzY3JpcHRpb252Q3JlYXRlZCBieSBSZWNyYWZ0IEFJLgAAAMRqdW1iAAAAQGp1bWRjYm9yABEAEIAAAKoAOJtxE2MycGEuaGFzaC5kYXRhAAAAABhjMnNoHRYBIZbnC2L4GFLHZOwRIgAAAHxjYm9ypWpleGNsdXNpb25zgaJlc3RhcnQY22ZsZW5ndGgZRPBkbmFtZW5qdW1iZiBtYW5pZmVzdGNhbGdmc2hhMjU2ZGhhc2hYIKJTHorHUcT1H8I2/EPH1cCxt+jQ0x7wX2oxNPX7A+QSY3BhZEkAAAAAAAAAAAAAAAI0anVtYgAAACdqdW1kYzJjbAARABCAAACqADibcQNjMnBhLmNsYWltLnYyAAAAAgVjYm9ypmppbnN0YW5jZUlEeCx4bXA6aWlkOmFlYzFhNWQ0LTNkOWEtNDMwYy1hNDJiLTA1NzMyNmViNjgxNHRjbGFpbV9nZW5lcmF0b3JfaW5mb6NkbmFtZWpyZWNyYWZ0LmFpZ3ZlcnNpb254KDgxY2U4MmUyYzVjM2NiZmJlOGM2ZmJlMTc5ZDVmOGQ5MWM0MDljZTF3b3JnLmNvbnRlbnRhdXRoLmMycGFfcnNmMC45MC43aXNpZ25hdHVyZXhNc2VsZiNqdW1iZj0vYzJwYS91cm46YzJwYTpiZDc4MmI0MC0wYjQ2LTRiMjAtYjBmZC03YzBiMWQ2YjM0NzgvYzJwYS5zaWduYXR1cmVyY3JlYXRlZF9hc3NlcnRpb25zgqJjdXJseCpzZWxmI2p1bWJmPWMycGEuYXNzZXJ0aW9ucy9jMnBhLmFjdGlvbnMudjJkaGFzaFggvQRYW1YCzoH98ovA3RQa+9eLssf4zIzRcl+nweV+vPaiY3VybHgpc2VsZiNqdW1iZj1jMnBhLmFzc2VydGlvbnMvYzJwYS5oYXNoLmRhdGFkaGFzaFggsO2655SWShiyXWK4ihHNAeO4zEtFPhIs177czTzHnEloZGM6dGl0bGV4GlJlY3JhZnQgQUkgR2VuZXJhdGVkIEltYWdlY2FsZ2ZzaGEyNTYAAC8oanVtYgAAAChqdW1kYzJjcwARABCAAACqADibcQNjMnBhLnNpZ25hdHVyZQAAAC74Y2JvctKEWQPsogEmGCGCWQH0MIIB8DCCAZWgAwIBAgIUJcFH1Va4pZJDhzepwEtzPPNj2YMwCgYIKoZIzj0EAwIwQTELMAkGA1UEBhMCVVMxEzARBgNVBAoMClJlY3JhZnQgQUkxHTAbBgNVBAMMFFJlY3JhZnQgQzJQQSBSb290IENBMB4XDTI2MDkxMDE2NTIzNFoXDTI3MDkxMDE2NTIzNFowNzELMAkGA1UEBhMCVVMxEzARBgNVBAoMClJlY3JhZnQgQUkxEzARBgNVBAMMCnJlY3JhZnQuYWkwWTATBgcqhkjOPQIBBggqhkjOPQMBBwNCAASoOPdqG3YmNRdGd+dltfh1ikcE/nkLm8YK10H29taFa8iegusHYB1678yl5Bs18hLaV/Fhd+Ni32xAlnHdbimFo3UwczAMBgNVHRMBAf8EAjAAMA4GA1UdDwEB/wQEAwIGwDATBgNVHSUEDDAKBggrBgEFBQcDBDAdBgNVHQ4EFgQUgVwhvbEXPSSgCubOfUHxCtuoVAQwHwYDVR0jBBgwFoAUc9yF+sfWlRHeWv2Iucaec5jwdAgwCgYIKoZIzj0EAwIDSQAwRgIhAJltDpQN+vbXITLxb+8BNwSL6/5WktO4Sevkb0VXjtfWAiEAqhoz7z/sN32NxdnnZsQVTeu3P7CgGtJdXFx283fp08RZAewwggHoMIIBjaADAgECAhQAydo/NKOQWWu/4V5FktVQHX7jTDAKBggqhkjOPQQDAjBBMQswCQYDVQQGEwJVUzETMBEGA1UECgwKUmVjcmFmdCBBSTEdMBsGA1UEAwwUUmVjcmFmdCBDMlBBIFJvb3QgQ0EwHhcNMjYwOTEwMTY1MjM0WhcNMzYwOTA3MTY1MjM0WjBBMQswCQYDVQQGEwJVUzETMBEGA1UECgwKUmVjcmFmdCBBSTEdMBsGA1UEAwwUUmVjcmFmdCBDMlBBIFJvb3QgQ0EwWTATBgcqhkjOPQIBBggqhkjOPQMBBwNCAAQbQ+eF6fkpnHhTwrMxSBLh/JhROWkzsC8L8jN1r1Rlf8oECvzEFk3WujloPtNs3PLADriqR5rGtd+8giFuiTLno2MwYTAfBgNVHSMEGDAWgBRz3IX6x9aVEd5a/Yi5xp5zmPB0CDAPBgNVHRMBAf8EBTADAQH/MA4GA1UdDwEB/wQEAwIBhjAdBgNVHQ4EFgQUc9yF+sfWlRHeWv2Iucaec5jwdAgwCgYIKoZIzj0EAwIDSQAwRgIhAND2Z+xryBRnMbxk8eAzMcAq8bzl0rfA9Y2z7q5QoEUeAiEA6ZbI3e47h5clRZaARSOOotKXsK/YQMWC3vj91d3bmlOhY3BhZFkqtAAAAAAAAAAAAAAAAAAAAAAAAAAAAAAAAAAAAAAAAAAAAAAAAAAAAAAAAAAAAAAAAAAAAAAAAAAAAAAAAAAAAAAAAAAAAAAAAAAAAAAAAAAAAAAAAAAAAAAAAAAAAAAAAAAAAAAAAAAAAAAAAAAAAAAAAAAAAAAAAAAAAAAAAAAAAAAAAAAAAAAAAAAAAAAAAAAAAAAAAAAAAAAAAAAAAAAAAAAAAAAAAAAAAAAAAAAAAAAAAAAAAAAAAAAAAAAAAAAAAAAAAAAAAAAAAAAAAAAAAAAAAAAAAAAAAAAAAAAAAAAAAAAAAAAAAAAAAAAAAAAAAAAAAAAAAAAAAAAAAAAAAAAAAAAAAAAAAAAAAAAAAAAAAAAAAAAAAAAAAAAAAAAAAAAAAAAAAAAAAAAAAAAAAAAAAAAAAAAAAAAAAAAAAAAAAAAAAAAAAAAAAAAAAAAAAAAAAAAAAAAAAAAAAAAAAAAAAAAAAAAAAAAAAAAAAAAAAAAAAAAAAAAAAAAAAAAAAAAAAAAAAAAAAAAAAAAAAAAAAAAAAAAAAAAAAAAAAAAAAAAAAAAAAAAAAAAAAAAAAAAAAAAAAAAAAAAAAAAAAAAAAAAAAAAAAAAAAAAAAAAAAAAAAAAAAAAAAAAAAAAAAAAAAAAAAAAAAAAAAAAAAAAAAAAAAAAAAAAAAAAAAAAAAAAAAAAAAAAAAAAAAAAAAAAAAAAAAAAAAAAAAAAAAAAAAAAAAAAAAAAAAAAAAAAAAAAAAAAAAAAAAAAAAAAAAAAAAAAAAAAAAAAAAAAAAAAAAAAAAAAAAAAAAAAAAAAAAAAAAAAAAAAAAAAAAAAAAAAAAAAAAAAAAAAAAAAAAAAAAAAAAAAAAAAAAAAAAAAAAAAAAAAAAAAAAAAAAAAAAAAAAAAAAAAAAAAAAAAAAAAAAAAAAAAAAAAAAAAAAAAAAAAAAAAAAAAAAAAAAAAAAAAAAAAAAAAAAAAAAAAAAAAAAAAAAAAAAAAAAAAAAAAAAAAAAAAAAAAAAAAAAAAAAAAAAAAAAAAAAAAAAAAAAAAAAAAAAAAAAAAAAAAAAAAAAAAAAAAAAAAAAAAAAAAAAAAAAAAAAAAAAAAAAAAAAAAAAAAAAAAAAAAAAAAAAAAAAAAAAAAAAAAAAAAAAAAAAAAAAAAAAAAAAAAAAAAAAAAAAAAAAAAAAAAAAAAAAAAAAAAAAAAAAAAAAAAAAAAAAAAAAAAAAAAAAAAAAAAAAAAAAAAAAAAAAAAAAAAAAAAAAAAAAAAAAAAAAAAAAAAAAAAAAAAAAAAAAAAAAAAAAAAAAAAAAAAAAAAAAAAAAAAAAAAAAAAAAAAAAAAAAAAAAAAAAAAAAAAAAAAAAAAAAAAAAAAAAAAAAAAAAAAAAAAAAAAAAAAAAAAAAAAAAAAAAAAAAAAAAAAAAAAAAAAAAAAAAAAAAAAAAAAAAAAAAAAAAAAAAAAAAAAAAAAAAAAAAAAAAAAAAAAAAAAAAAAAAAAAAAAAAAAAAAAAAAAAAAAAAAAAAAAAAAAAAAAAAAAAAAAAAAAAAAAAAAAAAAAAAAAAAAAAAAAAAAAAAAAAAAAAAAAAAAAAAAAAAAAAAAAAAAAAAAAAAAAAAAAAAAAAAAAAAAAAAAAAAAAAAAAAAAAAAAAAAAAAAAAAAAAAAAAAAAAAAAAAAAAAAAAAAAAAAAAAAAAAAAAAAAAAAAAAAAAAAAAAAAAAAAAAAAAAAAAAAAAAAAAAAAAAAAAAAAAAAAAAAAAAAAAAAAAAAAAAAAAAAAAAAAAAAAAAAAAAAAAAAAAAAAAAAAAAAAAAAAAAAAAAAAAAAAAAAAAAAAAAAAAAAAAAAAAAAAAAAAAAAAAAAAAAAAAAAAAAAAAAAAAAAAAAAAAAAAAAAAAAAAAAAAAAAAAAAAAAAAAAAAAAAAAAAAAAAAAAAAAAAAAAAAAAAAAAAAAAAAAAAAAAAAAAAAAAAAAAAAAAAAAAAAAAAAAAAAAAAAAAAAAAAAAAAAAAAAAAAAAAAAAAAAAAAAAAAAAAAAAAAAAAAAAAAAAAAAAAAAAAAAAAAAAAAAAAAAAAAAAAAAAAAAAAAAAAAAAAAAAAAAAAAAAAAAAAAAAAAAAAAAAAAAAAAAAAAAAAAAAAAAAAAAAAAAAAAAAAAAAAAAAAAAAAAAAAAAAAAAAAAAAAAAAAAAAAAAAAAAAAAAAAAAAAAAAAAAAAAAAAAAAAAAAAAAAAAAAAAAAAAAAAAAAAAAAAAAAAAAAAAAAAAAAAAAAAAAAAAAAAAAAAAAAAAAAAAAAAAAAAAAAAAAAAAAAAAAAAAAAAAAAAAAAAAAAAAAAAAAAAAAAAAAAAAAAAAAAAAAAAAAAAAAAAAAAAAAAAAAAAAAAAAAAAAAAAAAAAAAAAAAAAAAAAAAAAAAAAAAAAAAAAAAAAAAAAAAAAAAAAAAAAAAAAAAAAAAAAAAAAAAAAAAAAAAAAAAAAAAAAAAAAAAAAAAAAAAAAAAAAAAAAAAAAAAAAAAAAAAAAAAAAAAAAAAAAAAAAAAAAAAAAAAAAAAAAAAAAAAAAAAAAAAAAAAAAAAAAAAAAAAAAAAAAAAAAAAAAAAAAAAAAAAAAAAAAAAAAAAAAAAAAAAAAAAAAAAAAAAAAAAAAAAAAAAAAAAAAAAAAAAAAAAAAAAAAAAAAAAAAAAAAAAAAAAAAAAAAAAAAAAAAAAAAAAAAAAAAAAAAAAAAAAAAAAAAAAAAAAAAAAAAAAAAAAAAAAAAAAAAAAAAAAAAAAAAAAAAAAAAAAAAAAAAAAAAAAAAAAAAAAAAAAAAAAAAAAAAAAAAAAAAAAAAAAAAAAAAAAAAAAAAAAAAAAAAAAAAAAAAAAAAAAAAAAAAAAAAAAAAAAAAAAAAAAAAAAAAAAAAAAAAAAAAAAAAAAAAAAAAAAAAAAAAAAAAAAAAAAAAAAAAAAAAAAAAAAAAAAAAAAAAAAAAAAAAAAAAAAAAAAAAAAAAAAAAAAAAAAAAAAAAAAAAAAAAAAAAAAAAAAAAAAAAAAAAAAAAAAAAAAAAAAAAAAAAAAAAAAAAAAAAAAAAAAAAAAAAAAAAAAAAAAAAAAAAAAAAAAAAAAAAAAAAAAAAAAAAAAAAAAAAAAAAAAAAAAAAAAAAAAAAAAAAAAAAAAAAAAAAAAAAAAAAAAAAAAAAAAAAAAAAAAAAAAAAAAAAAAAAAAAAAAAAAAAAAAAAAAAAAAAAAAAAAAAAAAAAAAAAAAAAAAAAAAAAAAAAAAAAAAAAAAAAAAAAAAAAAAAAAAAAAAAAAAAAAAAAAAAAAAAAAAAAAAAAAAAAAAAAAAAAAAAAAAAAAAAAAAAAAAAAAAAAAAAAAAAAAAAAAAAAAAAAAAAAAAAAAAAAAAAAAAAAAAAAAAAAAAAAAAAAAAAAAAAAAAAAAAAAAAAAAAAAAAAAAAAAAAAAAAAAAAAAAAAAAAAAAAAAAAAAAAAAAAAAAAAAAAAAAAAAAAAAAAAAAAAAAAAAAAAAAAAAAAAAAAAAAAAAAAAAAAAAAAAAAAAAAAAAAAAAAAAAAAAAAAAAAAAAAAAAAAAAAAAAAAAAAAAAAAAAAAAAAAAAAAAAAAAAAAAAAAAAAAAAAAAAAAAAAAAAAAAAAAAAAAAAAAAAAAAAAAAAAAAAAAAAAAAAAAAAAAAAAAAAAAAAAAAAAAAAAAAAAAAAAAAAAAAAAAAAAAAAAAAAAAAAAAAAAAAAAAAAAAAAAAAAAAAAAAAAAAAAAAAAAAAAAAAAAAAAAAAAAAAAAAAAAAAAAAAAAAAAAAAAAAAAAAAAAAAAAAAAAAAAAAAAAAAAAAAAAAAAAAAAAAAAAAAAAAAAAAAAAAAAAAAAAAAAAAAAAAAAAAAAAAAAAAAAAAAAAAAAAAAAAAAAAAAAAAAAAAAAAAAAAAAAAAAAAAAAAAAAAAAAAAAAAAAAAAAAAAAAAAAAAAAAAAAAAAAAAAAAAAAAAAAAAAAAAAAAAAAAAAAAAAAAAAAAAAAAAAAAAAAAAAAAAAAAAAAAAAAAAAAAAAAAAAAAAAAAAAAAAAAAAAAAAAAAAAAAAAAAAAAAAAAAAAAAAAAAAAAAAAAAAAAAAAAAAAAAAAAAAAAAAAAAAAAAAAAAAAAAAAAAAAAAAAAAAAAAAAAAAAAAAAAAAAAAAAAAAAAAAAAAAAAAAAAAAAAAAAAAAAAAAAAAAAAAAAAAAAAAAAAAAAAAAAAAAAAAAAAAAAAAAAAAAAAAAAAAAAAAAAAAAAAAAAAAAAAAAAAAAAAAAAAAAAAAAAAAAAAAAAAAAAAAAAAAAAAAAAAAAAAAAAAAAAAAAAAAAAAAAAAAAAAAAAAAAAAAAAAAAAAAAAAAAAAAAAAAAAAAAAAAAAAAAAAAAAAAAAAAAAAAAAAAAAAAAAAAAAAAAAAAAAAAAAAAAAAAAAAAAAAAAAAAAAAAAAAAAAAAAAAAAAAAAAAAAAAAAAAAAAAAAAAAAAAAAAAAAAAAAAAAAAAAAAAAAAAAAAAAAAAAAAAAAAAAAAAAAAAAAAAAAAAAAAAAAAAAAAAAAAAAAAAAAAAAAAAAAAAAAAAAAAAAAAAAAAAAAAAAAAAAAAAAAAAAAAAAAAAAAAAAAAAAAAAAAAAAAAAAAAAAAAAAAAAAAAAAAAAAAAAAAAAAAAAAAAAAAAAAAAAAAAAAAAAAAAAAAAAAAAAAAAAAAAAAAAAAAAAAAAAAAAAAAAAAAAAAAAAAAAAAAAAAAAAAAAAAAAAAAAAAAAAAAAAAAAAAAAAAAAAAAAAAAAAAAAAAAAAAAAAAAAAAAAAAAAAAAAAAAAAAAAAAAAAAAAAAAAAAAAAAAAAAAAAAAAAAAAAAAAAAAAAAAAAAAAAAAAAAAAAAAAAAAAAAAAAAAAAAAAAAAAAAAAAAAAAAAAAAAAAAAAAAAAAAAAAAAAAAAAAAAAAAAAAAAAAAAAAAAAAAAAAAAAAAAAAAAAAAAAAAAAAAAAAAAAAAAAAAAAAAAAAAAAAAAAAAAAAAAAAAAAAAAAAAAAAAAAAAAAAAAAAAAAAAAAAAAAAAAAAAAAAAAAAAAAAAAAAAAAAAAAAAAAAAAAAAAAAAAAAAAAAAAAAAAAAAAAAAAAAAAAAAAAAAAAAAAAAAAAAAAAAAAAAAAAAAAAAAAAAAAAAAAAAAAAAAAAAAAAAAAAAAAAAAAAAAAAAAAAAAAAAAAAAAAAAAAAAAAAAAAAAAAAAAAAAAAAAAAAAAAAAAAAAAAAAAAAAAAAAAAAAAAAAAAAAAAAAAAAAAAAAAAAAAAAAAAAAAAAAAAAAAAAAAAAAAAAAAAAAAAAAAAAAAAAAAAAAAAAAAAAAAAAAAAAAAAAAAAAAAAAAAAAAAAAAAAAAAAAAAAAAAAAAAAAAAAAAAAAAAAAAAAAAAAAAAAAAAAAAAAAAAAAAAAAAAAAAAAAAAAAAAAAAAAAAAAAAAAAAAAAAAAAAAAAAAAAAAAAAAAAAAAAAAAAAAAAAAAAAAAAAAAAAAAAAAAAAAAAAAAAAAAAAAAAAAAAAAAAAAAAAAAAAAAAAAAAAAAAAAAAAAAAAAAAAAAAAAAAAAAAAAAAAAAAAAAAAAAAAAAAAAAAAAAAAAAAAAAAAAAAAAAAAAAAAAAAAAAAAAAAAAAAAAAAAAAAAAAAAAAAAAAAAAAAAAAAAAAAAAAAAAAAAAAAAAAAAAAAAAAAAAAAAAAAAAAAAAAAAAAAAAAAAAAAAAAAAAAAAAAAAAAAAAAAAAAAAAAAAAAAAAAAAAAAAAAAAAAAAAAAAAAAAAAAAAAAAAAAAAAAAAAAAAAAAAAAAAAAAAAAAAAAAAAAAAAAAAAAAAAAAAAAAAAAAAAAAAAAAAAAAAAAAAAAAAAAAAAAAAAAAAAAAAAAAAAAAAAAAAAAAAAAAAAAAAAAAAAAAAAAAAAAAAAAAAAAAAAAAAAAAAAAAAAAAAAAAAAAAAAAAAAAAAAAAAAAAAAAAAAAAAAAAAAAAAAAAAAAAAAAAAAAAAAAAAAAAAAAAAAAAAAAAAAAAAAAAAAAAAAAAAAAAAAAAAAAAAAAAAAAAAAAAAAAAAAAAAAAAAAAAAAAAAAAAAAAAAAAAAAAAAAAAAAAAAAAAAAAAAAAAAAAAAAAAAAAAAAAAAAAAAAAAAAAAAAAAAAAAAAAAAAAAAAAAAAAAAAAAAAAAAAAAAAAAAAAAAAAAAAAAAAAAAAAAAAAAAAAAAAAAAAAAAAAAAAAAAAAAAAAAAAAAAAAAAAAAAAAAAAAAAAAAAAAAAAAAAAAAAAAAAAAAAAAAAAAAAAAAAAAAAAAAAAAAAAAAAAAAAAAAAAAAAAAAAAAAAAAAAAAAAAAAAAAAAAAAAAAAAAAAAAAAAAAAAAAAAAAAAAAAAAAAAAAAAAAAAAAAAAAAAAAAAAAAAAAAAAAAAAAAAAAAAAAAAAAAAAAAAAAAAAAAAAAAAAAAAAAAAAAAAAAAAAAAAAAAAAAAAAAAAAAAAAAAAAAAAAAAAAAAAAAAAAAAAAAAAAAAAAAAAAAAAAAAAAAAAAAAAAAAAAAAAAAAAAAAAAAAAAAAAAAAAAAAAAAAAAAAAAAAAAAAAAAAAAAAAAAAAAAAAAAAAAAAAAAAAAAAAAAAAAAAAAAAAAAAAAAAAAAAAAAAAAAAAAAAAAAAAAAAAAAAAAAAAAAAAAAAAAAAAAAAAAAAAAAAAAAAAAAAAAAAAAAAAAAAAAAAAAAAAAAAAAAAAAAAAAAAAAAAAAAAAAAAAAAAAAAAAAAAAAAAAAAAAAAAAAAAAAAAAAAAAAAAAAAAAAAAAAAAAAAAAAAAAAAAAAAAAAAAAAAAAAAAAAAAAAAAAAAAAAAAAAAAAAAAAAAAAAAAAAAAAAAAAAAAAAAAAAAAAAAAAAAAAAAAAAAAAAAAAAAAAAAAAAAAAAAAAAAAAAAAAAAAAAAAAAAAAAAAAAAAAAAAAAAAAAAAAAAAAAAAAAAAAAAAAAAAAAAAAAAAAAAAAAAAAAAAAAAAAAAAAAAAAAAAAAAAAAAAAAAAAAAAAAAAAAAAAAAAAAAAAAAAAAAAAAAAAAAAAAAAAAAAAAAAAAAAAAAAAAAAAAAAAAAAAAAAAAAAAAAAAAAAAAAAAAAAAAAAAAAAAAAAAAAAAAAAAAAAAAAAAAAAAAAAAAAAAAAAAAAAAAAAAAAAAAAAAAAAAAAAAAAAAAAAAAAAAAAAAAAAAAAAAAAAAAAAAAAAAAAAAAAAAAAAAAAAAAAAAAAAAAAAAAAAAAAAAAAAAAAAAAAAAAAAAAAAAAAAAAAAAAAAAAAAAAAAAAAAAAAAAAAAAAAAAAAAAAAAAAAAAAAAAAAAAAAAAAAAAAAAAAAAAAAAAAAAAAAAAAAAAAAAAAAAAAAAAAAAAAAAAAAAAAAAAAAAAAAAAAAAAAAAAAAAAAAAAAAAAAAAAAAAAAAAAAAAAAAAAAAAAAAAAAAAAAAAAAAAAAAAAAAAAAAAAAAAAAAAAAAAAAAAAAAAAAAAAAAAAAAAAAAAAAAAAAAAAAAAAAAAAAAAAAAAAAAAAAAAAAAAAAAAAAAAAAAAAAAAAAAAAAAAAAAAAAAAAAAAAAAAAAAAAAAAAAAAAAAAAAAAAAAAAAAAAAAAAAAAAAAAAAAAAAAAAAAAAAAAAAAAAAAAAAAAAAAAAAAAAAAAAAAAAAAAAAAAAAAAAAAAAAAAAAAAAAAAAAAAAAAAAAAAAAAAAAAAAAAAAAAAAAAAAAAAAAAAAAAAAAAAAAAAAAAAAAAAAAAAAAAAAAAAAAAAAAAAAAAAAAAAAAAAAAAAAAAAAAAAAAAAAAAAAAAAAAAAAAAAAAAAAAAAAAAAAAAAAAAAAAAAAAAAAAAAAAAAAAAAAAAAAAAAAAAAAAAAAAAAAAAAAAAAAAAAAAAAAAAAAAAAAAAAAAAAAAAAAAAAAAAAAAAAAAAAAAAAAAAAAAAAAAAAAAAAAAAAAAAAAAAAAAAAAAAAAAAAAAAAAAAAAAAAAAAAAAAAAAAAAAAAAAAAAAAAAAAAAAAAAAAAAAAAAAAAAAAAAAAAAAAAAAAAAAAAAAAAAAAAAAAAAAAAAAAAAAAAAAAAAAAAAAAAAAAAAAAAAAAAAAAAAAAAAAAAAAAAAAAAAAAAAAAAAAAAAAAAAAAAAAAAAAAAAAAAAAAAAAAAAAAAAAAAAAAAAAAAAAAAAAAAAAAAAAAAAAAAAAAAAAAAAAAAAAAAAAAAAAAAAAAAAAAAAAAAAAAAAAAAAAAAAAAAAAAAAAAAAAAAAAAAAAAAAAAAAAAAAAAAAAAAAAAAAAAAAAAAAAAAAAAAAAAAAAAAAAAAAAAAAAAAAAAAAAAAAAAAAAAAAAAAAAAAAAAAAAAAAAAAAAAAAAAAAAAAAAAAAAAAAAAAAAAAAAAAAAAAAAAAAAAAAAAAAAAAAAAAAAAAAAAAAAAAAAAAAAAAAAAAAAAAAAAAAAAAAAAAAAAAAAAAAAAAAAAAAAAAAAAAAAAAAAAAAAAAAAAAAAAAAAAAAAAAAAAAAAAAAAAAAAAAAAAAAAAAAAAAAAAAAAAAAAAAAAAAAAAAAAAAAAAAAAAAAAAAAAAAAAAAAAAAAAAAAAAAAAAAAAAAAAAAAAAAAAAAAAAAAAAAAAAAAAAAAAAAAAAAAAAAAAAAAAAAAAAAAAAAAAAAAAAAAAAAAAAAAAAAAAAAAAAAAAAAAAAAAAAAAAAAAAAAAAAAAAAAAAAAAAAAAAAAAAAAAAAAAAAAAAAAAAAAAAAAAAAAAAAAAAAAAAAAAAAAAAAAAAAAAAAAAAAAAAAAAAAAAAAAAAAAAAAAAAAAAAAAAAAAAAAAAAAAAAAAAAAAAAAAAAAAAAAAAAAAAAAAAAAAAAAAAAAAAAAAAAAAAAAAAAAAAAAAAAAAAAAAAAAAAAAAAAAAAAAAAAAAAAAAAAAAAAAAAAAAAAAAAAAAAAAAAAAAAAAAAAAAAAAAAAAAAAAAAAAAAAAAAAAAAAAAAAAAAAAAAAAAAAAAAAAAAAAAAAAAAAAAAAAAAAAAAAAAAAAAAAAAAAAAAAAAAAAAAAAAAAAAAAAAAAAAAAAAAAAAAAAAAAAAAAAAAAAAAAAAAAAAAAAAAAAAAAAAAAAAAAAAAAAAAAAAAAAAAAAAAAAAAAAAAAAAAAAAAAAAAAAAAAAAAAAAAAAAAAAAAAAAAAAAAAAAAAAAAAAAAAAAAAAAAAAAAAAAAAAAAAAAAAAAAAAAAAAAAAAAAAAAAAAAAAAAAAAAAAAAAAAAAAAAAAAAAAAAAAAAAAAAAAAAAAAAAAAAAAAAAAAAAAAAAAAAAAAAAAAAAAAAAAAAAAAAAAAAAAAAAAAAAAAAAAAAAAAAAAAAAAAAAAAAAAAAAAAAAAAAAAAAAAAAAAAAAAAAAAAAAAAAAAAAAAAAAAAAAAAAAAAAAAAAAAAAAAAAAAAAAAAAAAAAAAAAAAAAAAAAAAAAAAAAAAAAAAAAAAAAAAAAAAAAAAAAAAAAAAAAAAAAAAAAAAAAAAAAAAAAAAAAAAAAAAAAAAAAAAAAAAAAAAAAAAAAAAAAAAAAAAAAAAAAAAAAAAAAAAAAAAAAAAAAAAAAAAAAAAAAAAAAAAAAAAAAAAAAAAAAAAAAAAAAAAAAAAAAAAAAAAAAAAAAAAAAAAAAAAAAAAAAAAAAAAAAAAAAAAAAAAAAAAAAAAAAAAAAAAAAAAAAAAAAAAAAAAAAAAAAAAAAAAAAAAAAAAAAAAAAAAAAAAAAAAAAAAAAAAAAAAAAAAAAAAAAAAAAAAAAAAAAAAAAAAAAAAAAAAAAAAAAAAAAAAAAAAAAAAAAAAAAAAAAAAAAAAAAAAAAAAAAAAAAAAAAAAAAAAAAAAAAAAAAAAAAAAAAAAAAAAAAAAAAAAAAAAAAAAAAAAAAAAAAAAAAAAAAAAAAAAAAAAAAAAAAAAAAAAAAAAAAAAAAAAAAAAAAAAAAAAAAAAAAAAAAAAAAAAAAAAAAAAAAAAAAAAAAAAAAAAAAAAAAAAAAAAAAAAAAAAAAAAAAAAAAAAAAAAAAAAAAAAAAAAAAAAAAAAAAAAAAAAAAAAAAAAAAAAAAAAAAAAAAAAAAAAAAAAAAAAAAAAAAAAAAAAAAAAAAAAAAAAAAAAAAAAAAAAAAAAAAAAAAAAAAAAAAAAAAAAAAAAAAAAAAAAAAAAAAAAAAAAAAAAAAAAAAAAAAAAAAAAAAAAAAAAAAAAAAAAAAAAAAAAAAAAAAAAAAAAAAAAAAAAAAAAAAAAAAAAAAAAAAAAAAAAAAAAAAAAAAAAAAAAAAAAAAAAAAAAAAAAAAAAAAAAAAAAAAAAAAAAAAAAAAAAAAAAAAAAAAAAAAAAAAAAAAAAAAAAAAAAAAAAAAAAAAAAAAAAAAAAAAAAAAAAAAAAAAAAAAAAAAAAAAAAAAAAAAAAAAAAAAAAAAAAAAAAAAAAAAAAAAAAAAAAAAAAAAAAAAAAAAAAAAAAAAAAAAAAAAAAAAAAAAAAAAAAAAAAAAAAAAAAAAAAAAAAAAAAAAAAAAAAAAAAAAAAAAAAAAAAAAAAAAAAAAAAAAAAAAAAAAAAAAAAAAAAAAAAAAAAAAAAAAAAAAAAAAAAAAAAAAAAAAAAAAAAAAAAAAAAAAAAAAAAAAAAAAAAAAAAAAAAAAAAAAAAAAAAAAAAAAAAAAAAAAAAAAAAAAAAAAAAAAAAAAAAAAAAAAAAAAAAAAAAAAAAAAAAAAAAAAAAAAAAAAAAAAAAAAAAAAAAAAAAAAAAAAAAAAAAAAAAAAAAAAAAAAAAAAAAAAAAAAAAAAAAAAAAAAAAAAAAAAAAAAAAAAAAAAAAAAAAAAAAAAAAAAAAAAAAAAAAAAAAAAAAAAAAAAAAAAAAAAAAAAAAAAAAAAAAAAAAAAAAAAAAAAAAAAAAAAAAAAAAAAAAAAAAAAAAAAAAAAAAAAAAAAAAAAAAAAAAAAAAAAAAAAAAAAAAAAAAAAAAAAAAAAAAAAAAAAAAAAAAAAAAAAAAAAAAAAAAAAAAAAAAAAAAAAAAAAAAAAAAAAAAAAAAAAAAAAAAAAAAAAAAAAAAAAAAAAAAAAAAAAAAAAAAAAAAAAAAAAAAAAAAAAAAAAAAAAAAAAAAAAAAAAAAAAAAAAAAAAAAAAAAAAAAAAAAAAAAAAAAAAAAAAAAAAAAAAAAAAAAAAAAAAAAAAAAAAAAAAAAAAAAAAAAAAAAAAAAAAAAAAAAAAAAAAAAAAAAAAAAAAAAAAAAAAAAAAAAAAAAAAAAAAAAAAAAAAAAAAAAAAAAAAAAAAAAAAAAAAAAAAAAAAAAAAAAAAAAAAAAAAAAAAAAAAAAAAAAAAAAAAAAAAAAAAAAAAAAAAAAAAAAAAAAAAAAAAAAAAAAAAAAAAAAAAAAAAAAAAAAAAAAAAAAAAAAAAAAAAAAAAAAAAAAAAAAAAAAAAAAAAAAAAAAAAAAAAAAAAAAAAAAAAAAAAAAAAAAAAAAAAAAAAAAAAAAAAAAAAAAAAAAAAAAAAAAAAAAAAAAAAAAAAAAAAAAAAAAAAAAAAAAAAAAAAAAAAAAAAAAAAAAAAAAAAAAAAAAAAAAAAAAAAAAAAAAAAAAAAAAAAAAAAAAAAAAAAAAAAAAAAAAAAAAAAAAAAAAAAAAAAAAAAAAAAAAAAAAAAAAAAAAAAAAAAAAAAAAAAAAAAAAAAAAAAAAAAAAAAAAAAAAAAAAAAAAAAAAAAAAAAAAAAAAAAAAAAAAAAAAAAAAAAAAAAAAAAAAAAAAAAAAAAAAAAAAAAAAAAAAAAAAAAAAAAAAAAAAAAAAAAAAAAAAAAAAAAAAAAAAAAAAAAAAAAAAAAAAAAAAAAAAAAAAAAAAAAAAAAAAAAAAAAAAAAAAAAAAAAAAAAAAAAAAAAAAAAAAAAAAAAAAAAAAAAAAAAAAAAAAAAAAAAAAAAAAAAAAAAAAAAAAAAAAAAAAAAAAAAAAAAAAAAAAAAAAAAAAAAAAAAAAAAAAAAAAAAAAAAAAAAAAAAAAAAAAAAAAAAAAAAAAAAAAAAAAAAAAAAAAAAAAAAAAAAAAAAAAAAAAAAAAAAAAAAAAAAAAAAAAAAAAAAAAAAAAAAAAAAAAAAAAAAAAAAAAAAAAAAAAAAAAAAAAAAAAAAAAAAAAAAAAAAAAAAAAAAAAAAAAAAAAAAAAAAAAAAAAAAAAAAAAAAAAAAAAAAAAAAAAAAAAAAAAAAAAAAAAAAAAAAAAAAAAAAAAAAAAAAAAAAAAAAAAAAAAAAAAAAAAAAAAAAAAAAAAAAAAAAAAAAAAAAAAAAAAAAAAAAAAAAAAAAAAAAAAAAAAAAAAAAAAAAAAAAAAAAAAAAAAAAAAAAAAAAAAAAAAAAAAAAAAAAAAAAAAAAAAAAAAAAAAAAAAAAAAAAAAAAAAAAAAAAAAAAAAAAAAAAAAAAAAAAAAAAAAAAAAAAAAAAAAAAAAAAAAAAAAAAAAAAAAAAAAAAAAAAAAAAAAAAAAAAAAAAAAAAAAAAAAAAAAAAAAAAAAAAAAAAAAAAAAAAAAAAAAAAAAAAAAAAAAAAAAAAAAAAAAAAAAAAAAAAAAAAAAAAAAAAAAAAAAAAAAAAAAAAAAAAAAAAAAAAAAAAAAAAAAAAAAAAAAAAAAAAAAAAAAAAAAAAAAAAAAAAAAAAAAAAAAAAAAAAAAAAAAAAAAAAAAAAAAAAAAAAAAAAAAAAAAAAAAAAAAAAAAAAAAAAAAAAAAAAAAAAAAAAAAAAAAAAAAAAAAAAAAAAAAAAAAAAAAAAAAAAAAAAAAAAAAAAAAAAAAAAAAAAAAAAAAAAAAAAAAAAAAAAAAAAAAAAAAAAAAAAAAAAAAAAAAAAAAAAAAAAAAAAAAAAAAAAAAAAAAAAAAAAAAAAAAAAAAAAAAAAAAAAAAAAAAAAAAAAAAAAAAAAAAAAAAAAAAAAAAAAAAAAAAAAAAAAAAAAAAAAAAAAAAAAAAAAAAAAAAAAAAAAAAAAAAAAAAAAAAAAAAAAAAAAAAAAAAAAAAAAAAAAAAAAAAAAAAAAAAAAAAAAAAAAAAAAAAAAAAAAAAAAAAAAAAAAAAAAAAAAAAAAAAAAAAAAAAAAAAAAAAAAAAAAAAAAAAAAAAAAAAAAAAAAAAAAAAAAAAAAAAAAAAAAAAAAAAAAAAAAAAAAAAAAAAAAAAAAAAAAAAAAAAAAAAAAAAAAAAAAAAAAAAAAAAAAAAAAAAAAAAAAAAAAAAAAAAAAAAAAAAAAAAAAAAAAAAAAAAAAAAAAAAAAAAAAAAAAAAAAAAAAAAAAAAAAAAAAAAAAAAAAAAAAAAAAAAAAAAAAAAAAAAAAAAAAAAAAAAAAAAAAAAAAAAAAAAAAAAAAAAAAAAAAAAAAAAAAAAAAAAAAAAAAAAAAAAAAAAAAAAAAAAAAAAAAAAAAAAAAAAAAAAAAAAAAAAAAAAAAAAAAAAAAAAAAAAAAAAAAAAAAAAAAAAAAAAAAAAAAAAAAAAAAAAAAAAAAAAAAAAAAAAAAAAAAAAAAAAAAAAAAAAAAAAAAAAAAAAAAAAAAAAAAAAAAAAAAAAAAAAAAAAAAAAAAAAAAAAAAAAAAAAAAAAAAAAAAAAAAAAAAAAAAAAAAAAAAAAAAAAAAAAAAAAAAAAAAAAAAAAAAAAAAAAAAAAAAAAAAAAAAAAAAAAAAAAAAAAAAAAAAAAAAAAAAAAAAAAAAAAAAAAAAAAAAAAAAAAAAAAAAAAAAAAAAAAAAAAAAAAAAAAAAAAAAAAAAAAAAAAAAAAAAAAAAAAAAAAAAAAAAAAAAAAAAAAAAAAAAAAAAAAAAAAAAAAAAAAAAAAAAAAAAAAAAAAAAAAAAAAAAAAAAAAAAAAAAAAAAAAAAAAAAAAAAAAAAAAAAAAAAAAAAAAAAAAAAAAAAAAAAAAAAAAAAAAAAAAAAAAAAAAAAAAAAAAAAAAAAAAAAAAAAAAAAAAAAAAAAAAAAAAAAAAAAAAAAAAAAAAAAAAAAAAAAAAAAAAAAAAAAAAAAAAAAAAAAAAAAAAAAAAAAAAAAAAAAAAAAAAAAAAAAAAAAAAAAAAAAAAAAAAAAAAAAAAAAAAAAAAAAAAAAAAAAAAAAAAAAAAAAAAAAAAAAAAAAAAAAAAAAAAAAAAAAAAAAAAAAAAAAAAAAAAAAAAAAAAAAAAAAAAAAAAAAAAAAAAAAAAAAAAAAAAAAAAAAAAAAAAAAAAAAAAAAAAAAAAAAAAAAAAAAAAAAAAAAAAAAAAAAAAAAAAAAAAAAAAAAAAAAAAAAAAAAAAAAAAAAAAAAAAAAAAAAAAAAAAAAAAAAAAAAAAAAAAAAAAAAAAAAAAAAAAAAAAAAAAAAAAAAAAAAAAAAAAAAAAAAAAAAAAAAAAAAAAAAAAAAAAAAAAAAAAAAAAAAAAAAAAAAAAAAAAAAAAAAAAAAAAAAAAAAAAAAAAAAAAAAAAAAAAAAAAAAAAAAAAAAAAAAAAAAAAAAAAAAAAAAAAAAAAAAAAAAAAAAAAAAAAAAAAAAAAAAAAAAAAAAAAAAAAAAAAAAAAAAAAAAAAAAAAAAAAAAAAAAAAAAAAAAAAAAAAAAAAAAAAAAAAAAAAAAAAAAAAAAAAAAAAAAAAAAAAAAAAPZYQFaooD0gJT6yfJpHvm+k+i8u21kNupD1HPoX+Db7HNxBeXIc7tNBdekkRJM37jKSY4SNp4Or9cXVgEUQOmPYZ5k=</c2pa:manifest></metadata>
<path transform="translate(0,0)" fill="rgb(251,250,249)" d="M 0 0 L 2432 0 L 2432 2432 L 0 2432 L 0 0 z"/>
<path transform="translate(0,0)" fill="rgb(52,14,12)" d="M 816.945 384.504 C 851.197 360.947 874.131 345.718 912.199 326.956 C 1045.15 261.428 1200.88 243.85 1346.2 269.001 C 1435.7 284.49 1546.79 328.005 1618.67 384.68 C 1686.66 382.668 1746.82 401.81 1797.99 448.435 C 1839.15 485.933 1851.38 528.024 1878.25 574.558 C 1904.22 619.532 1932.43 662.458 1966.98 701.404 C 1997.68 735.521 2031.67 766.514 2068.48 793.93 C 2115.2 828.68 2168.58 856.863 2202.23 903.372 C 2330.4 1080.47 2148.29 1236.55 1969.8 1233.6 C 1885.75 1232.22 1805.06 1214.17 1744.75 1155.67 C 1738.02 1149.03 1731.57 1142.13 1725.41 1134.96 C 1677.91 1152.9 1631.65 1164.77 1581.76 1174.55 C 1562.49 1178.33 1541.91 1180.78 1523.24 1184.66 C 1625.6 1219.38 1721.62 1270.52 1807.56 1336.08 C 1821.6 1346.74 1843.98 1363.67 1856.44 1375.93 C 1918.22 1362.88 1921.94 1383.98 1962.7 1426.52 C 1995.68 1460.93 2001.15 1483.65 1947.1 1492.38 C 1989.74 1543.42 2022.96 1601.64 2045.22 1664.32 C 2071.33 1673.32 2084.02 1679.63 2107.55 1694.19 C 2142.48 1715.81 2189.93 1779.55 2132.31 1806.55 C 2129.34 1807.93 2126.31 1809.21 2123.24 1810.37 C 2118.69 1847.98 2089.27 1859.08 2055.22 1854.26 C 2053.11 1853.98 2051 1853.64 2048.91 1853.25 C 2024.6 1889.17 1979.05 1880.02 1948.69 1858.04 C 1929.67 1844.27 1917.11 1826.09 1906.18 1805.6 C 1893.35 1819.88 1880.49 1827.49 1860.93 1828.84 C 1827.99 1831.11 1795.49 1807.43 1795.04 1772.99 C 1794.73 1749.26 1808.57 1727.81 1824.87 1711.78 C 1831.51 1705.24 1838.79 1699.38 1846.59 1694.29 C 1833.23 1663.85 1810.66 1619.1 1789.59 1592.71 C 1774.96 1594.5 1767.88 1596.09 1755.52 1586.43 C 1754.83 1585.89 1754.15 1585.35 1753.47 1584.79 C 1763.9 1622.08 1766.86 1667.73 1766.97 1706.34 C 1747.5 1719.22 1731.09 1728.91 1710.83 1740.42 C 1699.65 1767.18 1663.93 1809.4 1642.11 1829.73 C 1658.82 1844.45 1675.26 1858.99 1693.43 1871.78 C 1816.61 1958.55 1977.83 1996.19 2126.59 1972.09 C 2133.37 1970.99 2142.1 1969.09 2148.63 1971.59 L 2149.78 1973.44 C 2145.78 1987.66 2114.17 2016.47 2102.25 2025.67 C 1964.65 2131.77 1774.64 2115.22 1624.7 2048.08 C 1626.26 2055.55 1640.1 2119.08 1639.37 2121.11 L 1636.21 2123.76 C 1646.63 2128.98 1661.45 2130.15 1672.83 2134.53 C 1718.48 2152.09 1763.42 2180.6 1780.42 2228.96 C 1788.55 2252.09 1784.28 2269.52 1761.07 2281.07 C 1757.26 2282.97 1748.07 2286.67 1744.09 2286.96 C 1721.23 2288.63 1696.88 2288.01 1674.05 2288.02 L 1532.53 2287.99 L 1403.68 2287.99 C 1370.22 2288.02 1294.15 2297.25 1287.98 2255.47 C 1284.84 2234.24 1285.71 2184.45 1286.59 2161.67 L 1274.51 2158.94 C 1265.67 2092.53 1256.7 2023.09 1246.82 1957 C 1207.96 1959.1 1178.13 1958.04 1139.2 1955.19 C 1127.19 2019.1 1116.92 2083.11 1105.17 2147 L 1084.5 2152.72 C 1084.39 2172.11 1084.39 2191.5 1084.5 2210.88 C 1084.6 2229.96 1087.91 2256.79 1073.83 2271.16 C 1053.32 2292.1 1021.42 2288.14 994.517 2288.12 L 911.129 2288.03 L 643.039 2287.96 C 617.708 2287.77 587.759 2274.82 589.43 2244.95 C 590.856 2219.46 611.304 2191.01 629.798 2174.6 C 659.204 2148.53 712.519 2124.69 751.939 2123.1 C 752.359 2121.57 752.797 2120.05 753.255 2118.53 C 748.764 2116.35 749.287 2117.41 747.014 2113.8 C 747.595 2106.8 751.552 2091.56 753.25 2084.24 L 766.337 2028.15 C 779.558 1971.76 792.572 1911.81 806.89 1856.03 C 773.381 1831.25 747.751 1807.1 722.679 1773.34 C 717.552 1766.44 700.964 1738.99 697.032 1735.65 C 684.844 1725.32 663.946 1716.08 649.354 1704.91 C 648.576 1673.95 651.431 1625.05 658.456 1595.26 L 657.827 1594.12 C 640.419 1598.71 638.699 1597.4 620.741 1593.46 C 602.224 1622.36 577.457 1664.03 566.958 1697.05 C 678.674 1785.64 558.761 1874.06 504.908 1804.47 C 489.881 1830.74 475.794 1852.25 448.382 1867.38 C 422.534 1881.65 380.751 1882.5 365.392 1852.7 C 332.691 1860.13 296.48 1851.99 289.035 1814.17 C 288.843 1813.18 288.663 1812.19 288.494 1811.2 C 257.555 1796.81 241.981 1776.51 259.302 1742 C 277.531 1705.68 325.21 1673.98 364.102 1664.96 C 387.678 1603.58 420.135 1545.99 460.435 1494.04 C 444.191 1491.18 416.639 1481.69 424.398 1463.73 C 436.912 1434.76 480.601 1393.17 506.902 1375.84 C 519.598 1367.48 548.699 1375.34 561.321 1378.09 C 643.752 1306.77 723.425 1253.44 824.026 1209.13 C 848.066 1198.55 870.063 1191.43 893.367 1181.89 C 828.874 1171.04 775.482 1158.65 713.949 1136.03 C 610.444 1258.74 385.326 1264.07 265.36 1163.08 C 226.391 1130.28 198.883 1087.06 195.686 1035.49 C 191.669 979.29 212.378 931.531 248.636 889.286 C 279.239 853.632 318.158 832.1 355.572 804.714 C 399.788 772.349 439.169 738.61 475.161 697.223 C 504.259 663.59 530.263 627.399 552.855 589.092 C 560.096 576.752 572.688 555.254 578.71 542.473 C 597.253 503.117 611.596 473.593 645.372 443.843 C 685.68 408.915 736.331 388.171 789.56 384.791 C 798.393 384.235 808.07 384.414 816.945 384.504 z"/>
<path transform="translate(0,0)" fill="rgb(251,250,249)" d="M 753.255 2118.53 L 755.126 2119.4 C 758.959 2122.18 756.637 2121.82 751.939 2123.1 C 752.359 2121.57 752.797 2120.05 753.255 2118.53 z"/>
<path transform="translate(0,0)" fill="rgb(251,250,249)" d="M 1307.53 1192.33 C 1296.95 1194.26 1243.7 1193.85 1230.36 1193.83 C 1141.89 1194.53 1053.44 1190.63 965.376 1182.14 C 834.381 1168.81 656.469 1133.04 564.766 1029.46 C 504.626 961.532 530.658 863.519 607.664 823.673 C 615.596 819.569 635.973 811.183 641.725 806.587 L 641.868 803.918 C 636.581 798.426 636.874 803.76 632.228 799.344 C 629.525 786.355 629.494 771.88 629.444 758.55 C 629.158 692.861 644.121 628.003 673.155 569.079 C 734.557 444.05 858.578 349.379 988.735 305.065 C 979.782 319.013 975.969 326.736 982.058 343.275 C 1012.38 386.305 1086.03 385.341 1130.9 370.87 C 1166.94 450.121 1340.5 445.111 1379.98 374.072 C 1409 378.791 1439.24 379.566 1464.56 362.394 C 1480.83 351.359 1485.55 337.529 1478.68 319.363 L 1479.83 318.453 C 1495.37 321.928 1520 335.75 1534.56 343.343 C 1682.79 420.668 1804.95 568.76 1807.88 741.739 C 1808.07 752.767 1808.4 793.059 1804.59 801.171 L 1802.24 801.722 C 1799.78 802.318 1799.32 802.361 1797.21 803.862 C 1796.99 805.509 1796.42 806.683 1797.44 807.417 C 1806.82 813.928 1818.4 818.018 1828.53 823.596 C 1872.01 847.542 1907.46 891.457 1906.68 943.205 C 1905.42 1027.08 1822.66 1083.03 1753.84 1113.31 C 1642.78 1162.16 1520.9 1179.68 1400.8 1188.12 C 1371.73 1190.14 1339.29 1192.56 1310.1 1192.4 C 1309.25 1192.39 1308.39 1192.37 1307.53 1192.33 z"/>
<path transform="translate(0,0)" fill="rgb(193,177,182)" d="M 1307.53 1192.33 C 1296.95 1194.26 1243.7 1193.85 1230.36 1193.83 C 1141.89 1194.53 1053.44 1190.63 965.376 1182.14 C 834.381 1168.81 656.469 1133.04 564.766 1029.46 C 504.626 961.532 530.658 863.519 607.664 823.673 C 615.596 819.569 635.973 811.183 641.725 806.587 L 641.868 803.918 C 636.581 798.426 636.874 803.76 632.228 799.344 C 629.525 786.355 629.494 771.88 629.444 758.55 C 629.158 692.861 644.121 628.003 673.155 569.079 C 734.557 444.05 858.578 349.379 988.735 305.065 C 979.782 319.013 975.969 326.736 982.058 343.275 C 871.096 409.432 763.234 528.983 731.018 656.353 C 726.901 672.881 723.818 689.649 721.787 706.56 C 718.283 737.934 719.431 763.368 707.814 794.336 C 698.962 817.93 686.885 819.983 671.028 837.756 C 628.573 885.338 617.711 948.047 651.706 1003.69 C 701.66 1085.46 821.088 1132.97 910.765 1155 C 997.858 1176.4 1103.9 1188.27 1193.98 1191.51 C 1218.24 1192.28 1242.51 1192.46 1266.78 1192.07 C 1275.41 1192 1299.51 1191.33 1307.53 1192.33 z"/>
<path transform="translate(0,0)" fill="rgb(52,14,12)" d="M 773.029 750.488 C 774.894 596.275 1016.65 575.917 1063.59 712.412 C 1066.13 719.789 1066.22 739.999 1069.57 743.307 C 1075.39 743.506 1076.46 741.753 1080.84 745.331 C 1076.31 746.804 1071.87 748.342 1067.24 749.481 C 1067.48 768.332 1066.86 785.526 1058.95 803.03 C 1016.94 896.012 876.82 907.506 807.442 840.01 C 782.666 815.906 773.728 789.934 772.84 756.211 C 767.194 755.107 759.638 753.859 754.253 752.324 C 753.705 752.249 748.771 751.845 748.477 750.314 C 748.588 750.147 748.7 749.98 748.812 749.813 C 753.31 748.202 769.389 749.814 773.029 750.488 z"/>
<path transform="translate(0,0)" fill="rgb(105,79,75)" d="M 754.253 752.324 C 753.705 752.249 748.771 751.845 748.477 750.314 C 748.588 750.147 748.7 749.98 748.812 749.813 C 753.31 748.202 769.389 749.814 773.029 750.488 C 765.123 751.735 760.281 748.91 754.253 752.324 z"/>
<path transform="translate(0,0)" fill="rgb(165,95,69)" d="M 862.147 639.087 C 942.954 606.156 1054.14 646.611 1058.94 744.115 C 981.773 751.74 887.573 756.358 809.919 751.849 L 781.867 750.445 C 781.56 696.243 813.47 659.082 862.147 639.087 z"/>
<path transform="translate(0,0)" fill="rgb(120,53,28)" d="M 781.867 750.445 C 781.56 696.243 813.47 659.082 862.147 639.087 C 856.726 646.008 850.442 651.629 845.014 658.608 C 832.366 674.871 821.529 694.998 816.102 714.897 L 814.701 720.235 C 811.968 730.809 810.124 740.909 809.919 751.849 L 781.867 750.445 z"/>
<path transform="translate(0,0)" fill="rgb(78,29,25)" d="M 1053.98 751.05 L 1058 750.673 C 1064.28 756.181 1058.95 772.524 1057.23 780.018 C 1033.94 881.171 891.455 903.502 820.159 841.661 C 793.564 816.465 783.169 794.049 781.778 757.988 C 804.147 757.078 841.841 759.929 867.058 759.992 C 929.486 760.606 991.896 757.62 1053.98 751.05 z"/>
<path transform="translate(0,0)" fill="rgb(251,250,249)" d="M 934.823 766.369 C 951.142 766.082 966.28 769.84 969.589 786.613 C 970.403 790.742 982.302 791.78 986.201 803.341 C 987.667 807.752 987.292 812.567 985.161 816.698 C 980.263 826.103 971.335 828.755 961.851 831.302 C 946.586 831.824 930.617 827.509 927.506 811.02 C 920.97 804.998 912.92 804.774 910.585 793.862 C 907.179 777.95 919.821 769.412 934.823 766.369 z"/>
<path transform="translate(0,0)" fill="rgb(52,14,12)" d="M 1358.14 741.55 C 1362.41 742.21 1365.44 743.331 1369.01 741.262 C 1371.46 737.984 1372.84 719.371 1375.54 711.546 C 1422.38 575.908 1667.38 597.284 1665.06 750.414 C 1667.95 749.932 1689.71 747.686 1690.15 750.223 L 1690.02 750.528 L 1689.77 750.477 L 1689.84 750.59 L 1689.52 750.462 L 1688.68 751.432 C 1687.25 751.891 1685.75 752.039 1684.28 752.304 L 1683.73 752.397 C 1678.26 753.914 1670.77 755.348 1665.07 756.594 C 1665.68 883.814 1483.4 921.179 1404.7 839.649 C 1378.02 812.01 1370.88 786.888 1370.88 749.179 C 1364.62 747.937 1357.85 745.671 1351.68 743.804 C 1350.52 743.523 1349.56 743.257 1348.44 742.869 C 1348.1 742.75 1346.4 741.68 1347.27 741.372 C 1350.25 740.312 1355.23 741.069 1358.14 741.55 z"/>
<path transform="translate(0,0)" fill="rgb(78,29,25)" d="M 1665.06 750.414 C 1667.95 749.932 1689.71 747.686 1690.15 750.223 L 1690.02 750.528 L 1689.77 750.477 L 1689.84 750.59 L 1689.52 750.462 L 1688.68 751.432 C 1687.25 751.891 1685.75 752.039 1684.28 752.304 L 1683.73 752.397 C 1678.51 749.16 1673.25 751.567 1665.06 750.414 z"/>
<path transform="translate(0,0)" fill="rgb(78,29,25)" d="M 1351.68 743.804 C 1350.52 743.523 1349.56 743.257 1348.44 742.869 C 1348.1 742.75 1346.4 741.68 1347.27 741.372 C 1350.25 740.312 1355.23 741.069 1358.14 741.55 C 1355.5 742.316 1354.21 742.725 1351.68 743.804 z"/>
<path transform="translate(0,0)" fill="rgb(165,95,69)" d="M 1460.91 638.143 C 1503.05 623.939 1549.56 623.93 1589.43 644.528 C 1632.57 666.81 1657.24 701.892 1655.6 750.566 C 1585.93 754.676 1478.26 754.174 1408.2 746.747 C 1401.29 746.595 1387.59 744.627 1380.09 743.751 C 1380.76 691.521 1414.94 657.252 1460.91 638.143 z"/>
<path transform="translate(0,0)" fill="rgb(120,53,28)" d="M 1380.09 743.751 C 1380.76 691.521 1414.94 657.252 1460.91 638.143 C 1456.96 643.092 1452.48 647.835 1447.98 652.304 C 1442.56 657.681 1438.69 664.887 1433.79 670.478 C 1423.44 682.298 1403.39 732.736 1408.2 746.747 C 1401.29 746.595 1387.59 744.627 1380.09 743.751 z"/>
<path transform="translate(0,0)" fill="rgb(78,29,25)" d="M 1380.71 750.56 C 1466.52 759.621 1570.56 763.142 1656.64 757.204 C 1656.38 795.115 1644.27 813.996 1618.52 839.915 C 1618.43 840.014 1618.34 840.112 1618.25 840.21 C 1545.28 905.268 1398.29 881.612 1381.15 774.745 C 1379.82 766.452 1380.39 758.407 1380.71 750.56 z"/>
<path transform="translate(0,0)" fill="rgb(251,250,249)" d="M 1540.6 766.347 C 1548.67 766.599 1553.04 767.131 1560.2 771.007 C 1570.66 776.671 1568.37 780.525 1572.17 788.466 C 1580.26 793.969 1588.38 797.444 1588.26 808.678 C 1588.09 824.328 1574.67 829.351 1561.36 831.412 C 1550.6 830.843 1549.69 830.675 1539.99 825.935 C 1529.74 820.923 1532.19 811.684 1527.12 809.018 C 1519.44 804.981 1513.37 801.377 1511.74 792.068 C 1510.91 787.392 1512.11 782.584 1515.03 778.839 C 1522.45 769.18 1529.54 767.801 1540.6 766.347 z"/>
<path transform="translate(0,0)" fill="rgb(52,14,12)" d="M 1206.95 792.547 C 1274.82 787.883 1362.3 822.026 1259.11 871.945 C 1290.32 878.35 1299.69 885.715 1327.03 900.359 C 1342.15 907.104 1360.78 908.876 1376.43 902.743 C 1389.86 897.482 1395.43 888.977 1401.02 876.706 C 1417.64 889.368 1426.53 909.41 1411.34 927.263 C 1392.91 948.924 1364.63 953.331 1337.92 956.142 C 1340.84 1016.32 1280.93 1045.16 1229.36 1050.31 C 1171.84 1057.6 1096.3 1022.62 1096.77 956.221 C 1094.42 956 1092.07 955.743 1089.73 955.452 C 1062.85 952.119 1016.49 941.438 1016.3 904.822 C 1016.26 897.09 1023.31 884.382 1029.72 879.724 C 1038.97 878.878 1040.1 893.517 1051.49 899.522 C 1060.87 904.469 1062.29 904.866 1073.03 906.163 C 1101.11 909.554 1115.46 894.783 1139.15 883.392 C 1151.42 877.495 1162.82 874.658 1176.19 871.777 C 1118.22 843.926 1112.85 807.803 1183.39 794.927 C 1191.17 793.507 1199.05 793.105 1206.95 792.547 z"/>
<path transform="translate(0,0)" fill="rgb(78,29,25)" d="M 1210.2 797.336 C 1248.75 791.195 1347.37 814.242 1270.78 859.765 C 1256.61 868.188 1244.11 872.125 1228.26 876.495 C 1208.78 880.675 1184.82 870.59 1167.84 861.561 C 1157.42 856.02 1140.2 842.835 1139.5 830.492 C 1137.84 801.251 1190.36 798.723 1210.2 797.336 z"/>
<path transform="translate(0,0)" fill="rgb(251,250,249)" d="M 1218.65 800.386 C 1226.32 800.35 1276.98 802.443 1252.73 819.417 C 1246.17 819.167 1193.37 817.148 1218.65 800.386 z"/>
<path transform="translate(0,0)" fill="rgb(251,250,249)" d="M 1270.34 812.322 C 1281.88 811.674 1291.85 815.661 1281.06 827.032 C 1271.54 827.638 1258.45 822.76 1268.74 813.799 L 1270.34 812.322 z"/>
<path transform="translate(0,0)" fill="rgb(120,53,28)" d="M 1182.62 875.493 C 1186.85 875.164 1204.68 881.661 1213.47 882.837 C 1214.08 890.617 1215.96 900.399 1212.77 907.258 C 1205.5 922.949 1186.88 932.534 1171.21 938.094 C 1128.34 953.31 1088.12 956.795 1046.28 938.155 C 1030.8 929.059 1011.94 904.374 1029.55 889.283 C 1033.79 890.217 1041.1 899.775 1045.51 902.36 C 1082.39 923.947 1112.34 905.211 1144.82 886.904 C 1154.31 881.554 1171.63 877.525 1182.62 875.493 z"/>
<path transform="translate(0,0)" fill="rgb(120,53,28)" d="M 1247.6 876.448 C 1283.88 870.556 1326.04 920.92 1365.93 910.972 C 1384.69 906.293 1393.45 902.332 1405.1 886.766 C 1416.14 908.46 1413.97 919.196 1395.27 934.436 C 1350.91 962.43 1269.36 952.693 1229.63 917.842 C 1219.8 909.219 1221.28 895.052 1221.5 883.1 C 1232.35 881.294 1236.98 879.899 1247.6 876.448 z"/>
<path transform="translate(0,0)" fill="rgb(223,132,105)" d="M 1191.69 1001.56 C 1227.75 999.922 1259.33 1007.51 1289.48 1027.22 C 1269.95 1038.33 1253.93 1042.59 1231.73 1045.06 C 1192.62 1048.57 1160.59 1039.47 1129.83 1015.6 C 1149.49 1005.36 1169.95 1002.97 1191.69 1001.56 z"/>
<path transform="translate(0,0)" fill="rgb(251,250,249)" d="M 1217.81 914.012 C 1221.18 917.236 1223.74 921.019 1227.58 924.205 C 1243.25 937.211 1261.2 942.644 1279.95 948.923 C 1257.71 952.57 1243.62 954.519 1220.91 955.609 C 1195.57 955.518 1182.02 953.156 1157.69 948.847 C 1179.41 940.859 1203 933.22 1217.81 914.012 z"/>
<path transform="translate(0,0)" fill="rgb(223,132,105)" d="M 1616.96 889.912 C 1643.41 888.628 1693.02 890.492 1713.75 907.509 C 1762.86 947.834 1674.34 964.111 1652.11 966.175 C 1544.03 976.937 1484.1 902.942 1616.96 889.912 z"/>
<path transform="translate(0,0)" fill="rgb(223,132,105)" d="M 797.648 889.882 C 823.571 888.549 870.846 890.002 892.308 905.177 C 947.73 944.363 864.092 962.401 838.826 965.689 C 811.943 968.487 759.529 965.817 738.142 949.174 C 687.552 909.804 775.26 892.18 797.648 889.882 z"/>
<path transform="translate(0,0)" fill="rgb(52,14,12)" d="M 1462.43 539.241 C 1489.39 537.724 1523.65 546.796 1548.66 556.313 C 1561.93 561.365 1609.97 582.714 1615.65 595.364 C 1580.24 579.074 1554.31 563.442 1514.25 553.8 C 1498.47 550.002 1479.29 548.53 1463.86 544.665 C 1462.49 544.32 1462.68 541.356 1462.43 539.241 z"/>
<path transform="translate(0,0)" fill="rgb(52,14,12)" d="M 951.883 539.596 C 957.461 539.112 968.008 537.149 970.464 542.739 C 967.457 548.087 952.307 547.123 944.538 548.339 C 903.527 554.757 866.246 570.057 829.85 589.104 C 824.417 592.056 818.326 594.777 812.703 597.436 C 842.64 567.172 909.566 543.711 951.883 539.596 z"/>
<path transform="translate(0,0)" fill="rgb(78,29,25)" d="M 1069.57 743.307 C 1072.53 742.596 1090.41 739.355 1091.48 741.624 C 1090.1 743.546 1082.96 745.052 1080.84 745.331 C 1076.46 741.753 1075.39 743.506 1069.57 743.307 z"/>
<path transform="translate(0,0)" fill="rgb(108,148,124)" d="M 574.337 1381.83 C 586.1 1369.83 605.44 1354.14 618.691 1343.79 C 693.198 1285.24 775.8 1237.8 863.919 1202.96 C 915.269 1182.79 910.562 1184.07 964.451 1190.71 C 963.994 1203.14 964.753 1210.27 966.837 1222.36 C 982.252 1278.81 1037.05 1326.91 1086.34 1355.26 C 1089.48 1357.03 1092.68 1358.69 1095.95 1360.22 C 1118.83 1315.75 1132.11 1289.61 1167.79 1252.07 C 1183.02 1275.62 1194.61 1301.33 1202.16 1328.34 C 1203.96 1334.61 1209.3 1360.4 1211.32 1363.7 L 1213.19 1364.06 C 1214.87 1360.13 1218.78 1340.47 1221.13 1332.8 C 1230.89 1300.99 1241.58 1280.02 1257.28 1251.35 C 1282.96 1279.3 1307.39 1310.69 1323.2 1345.2 C 1325.76 1350.77 1326.41 1356.47 1332.58 1358.15 C 1349.88 1354.87 1401.34 1308.36 1414.83 1294.06 C 1423.23 1285.15 1430.9 1275.58 1437.74 1265.42 C 1454.94 1240.03 1460.41 1222.35 1459.98 1191.56 C 1469.14 1190.74 1495.19 1186.81 1501.84 1188.12 C 1518.37 1191.36 1542.62 1201.11 1558.51 1207.3 C 1635.35 1237.67 1708.21 1277.29 1775.47 1325.29 C 1800.38 1343.15 1821.32 1360.59 1845.14 1379.33 C 1792.06 1394.05 1741.49 1421.29 1702 1459.88 C 1674.91 1406.58 1613.97 1334.78 1562.43 1299.63 C 1560.69 1298.45 1555.97 1298.76 1553.89 1299.44 L 1552.56 1301.27 C 1553.79 1308.43 1575.6 1321.39 1581.88 1327.13 C 1688.49 1424.61 1755.79 1555.9 1755.02 1702.6 C 1616.37 1791.85 1444.83 1829.84 1281.67 1835.84 C 1243.21 1797.01 1234.89 1783.94 1208.83 1736.05 C 1185.27 1776.9 1164.98 1801.98 1132.84 1835.95 C 1096.32 1832.66 1036.76 1828.19 1001.41 1820.78 C 987.104 1819.72 969.347 1816.4 955.393 1813.28 C 948.041 1813.1 916.527 1805.93 907.88 1803.77 C 825.053 1783.15 732.09 1749.5 661.45 1700.61 C 655.831 1551.43 733.588 1406.09 850.648 1315.91 C 856.404 1311.48 868.568 1306.68 870.835 1299.76 C 869.434 1296.35 869.416 1297.28 865.08 1295.16 C 803.045 1334.46 748.499 1395.73 711.938 1459.09 C 688.424 1437.49 659.986 1416.85 630.408 1404.35 C 616.328 1396.29 590.185 1387.3 574.337 1381.83 z"/>
<path transform="translate(0,0)" fill="rgb(61,92,82)" d="M 865.08 1295.16 C 873.638 1290.87 887.347 1283.15 896.409 1282.95 L 898.031 1284.57 C 897.128 1292.3 882.249 1307.31 876.503 1314.31 C 864.352 1329.09 852.693 1344.28 841.543 1359.83 C 778.835 1448.26 705.831 1610.32 784.366 1707.6 C 836.1 1771.68 901.871 1787.12 973.273 1812.06 C 979.745 1813.59 996.046 1817.44 1001.41 1820.78 C 987.104 1819.72 969.347 1816.4 955.393 1813.28 C 948.041 1813.1 916.527 1805.93 907.88 1803.77 C 825.053 1783.15 732.09 1749.5 661.45 1700.61 C 655.831 1551.43 733.588 1406.09 850.648 1315.91 C 856.404 1311.48 868.568 1306.68 870.835 1299.76 C 869.434 1296.35 869.416 1297.28 865.08 1295.16 z"/>
<path transform="translate(0,0)" fill="rgb(61,92,82)" d="M 574.337 1381.83 C 586.1 1369.83 605.44 1354.14 618.691 1343.79 C 693.198 1285.24 775.8 1237.8 863.919 1202.96 C 915.269 1182.79 910.562 1184.07 964.451 1190.71 C 963.994 1203.14 964.753 1210.27 966.837 1222.36 C 935.571 1225.52 897.448 1233.8 866.591 1240.98 C 854.402 1243.82 829.233 1258.25 817.46 1264.74 C 764.976 1293.38 715.602 1327.38 670.128 1366.2 C 657.003 1377.46 642.45 1394.37 630.408 1404.35 C 616.328 1396.29 590.185 1387.3 574.337 1381.83 z"/>
<path transform="translate(0,0)" fill="rgb(51,59,93)" d="M 715.829 1743.89 C 773.764 1774.75 843.469 1796.69 906.923 1812.55 C 973.155 1829.73 1069.42 1839.48 1138.14 1845.1 C 1161.16 1822.85 1192.19 1786.34 1208.05 1758.42 C 1230.11 1795.33 1244.36 1816.26 1276.92 1844.94 C 1426.04 1836.99 1545.22 1817.49 1682.15 1754.09 C 1685.94 1752.1 1690.11 1750.25 1694.01 1748.36 C 1692.54 1751.31 1690.37 1755.2 1688.43 1757.83 C 1650.7 1811.44 1628.34 1833.05 1574.21 1869.34 C 1592.76 1951.76 1608.52 2035.2 1627.07 2117.48 C 1530.67 2151.27 1458.54 2163.54 1355.67 2161.29 C 1330.99 2159.93 1310.17 2156.76 1285.64 2153 C 1277.73 2087.6 1267.05 2021.75 1259.15 1956.03 C 1281.69 1955.25 1303.8 1952.79 1326.19 1950.21 C 1336.26 1949.06 1362.33 1947.58 1368.67 1941.56 L 1368.99 1939.41 L 1367.76 1937.97 C 1351.37 1937.79 1335.55 1940.07 1319.3 1941.92 C 1258.96 1948.77 1198.95 1951.89 1138.37 1946.18 C 1117.05 1944.09 1095.79 1941.32 1074.65 1937.87 C 1065.67 1936.38 1043.62 1930.15 1036.53 1933.76 L 1035.33 1936.42 C 1040.62 1944.63 1113.15 1952.51 1126.81 1953.79 C 1115.65 2005.51 1109.31 2060.1 1099.08 2112.17 C 1097.34 2121.05 1095.67 2131.32 1094.63 2140.29 C 1011.85 2162.51 930.852 2157.94 847.882 2138.44 C 816.771 2129.4 789.378 2122.68 758.398 2111.69 C 771.163 2063.13 782.207 2013.13 793.595 1964.1 C 801.692 1929.24 812.785 1886.51 819.131 1852.09 C 777.655 1823.47 742.495 1786.64 715.829 1743.89 z"/>
<path transform="translate(0,0)" fill="rgb(35,40,69)" d="M 715.829 1743.89 C 773.764 1774.75 843.469 1796.69 906.923 1812.55 C 903.615 1814.68 903.708 1815.21 902.701 1820.41 C 896.389 1852.98 890.385 1885.79 884.674 1918.47 L 860.286 2058.8 C 858.526 2069.23 847.265 2131.06 847.882 2138.44 C 816.771 2129.4 789.378 2122.68 758.398 2111.69 C 771.163 2063.13 782.207 2013.13 793.595 1964.1 C 801.692 1929.24 812.785 1886.51 819.131 1852.09 C 777.655 1823.47 742.495 1786.64 715.829 1743.89 z"/>
<path transform="translate(0,0)" fill="rgb(35,40,69)" d="M 1259.15 1956.03 C 1281.69 1955.25 1303.8 1952.79 1326.19 1950.21 C 1326.63 1961.52 1329.56 1978.99 1331.19 1990.82 L 1341.25 2062.56 L 1350.11 2124.42 C 1351.45 2134.03 1353.45 2152.47 1355.67 2161.29 C 1330.99 2159.93 1310.17 2156.76 1285.64 2153 C 1277.73 2087.6 1267.05 2021.75 1259.15 1956.03 z"/>
<path transform="translate(0,0)" fill="rgb(35,40,69)" d="M 1694.01 1748.36 C 1692.54 1751.31 1690.37 1755.2 1688.43 1757.83 C 1685.54 1755.53 1685.56 1755.62 1682.15 1754.09 C 1685.94 1752.1 1690.11 1750.25 1694.01 1748.36 z"/>
<path transform="translate(0,0)" fill="rgb(251,250,249)" d="M 1544.58 1971.34 C 1561.57 1969.65 1566.11 1974.09 1570.91 1990.26 C 1574.87 2003.59 1580.86 2011.96 1569.12 2021.52 C 1554.18 2023.98 1547.98 2018.74 1545.08 2004.07 C 1543.05 1993.76 1534.58 1981.1 1543.06 1972.87 L 1544.58 1971.34 z"/>
<path transform="translate(0,0)" fill="rgb(251,250,249)" d="M 1556.65 1826.41 C 1561.9 1826.41 1569.41 1827 1571.18 1832.92 C 1574.28 1843.32 1542.84 1849.92 1536.68 1851.79 C 1531.36 1851.67 1523.36 1851.78 1521.06 1845.45 C 1520.44 1843.68 1520.61 1841.74 1521.54 1840.11 C 1525.1 1833.84 1543.6 1830.88 1550.86 1828.38 L 1552.73 1827.75 L 1556.65 1826.41 z"/>
<path transform="translate(0,0)" fill="rgb(251,250,249)" d="M 1567.3 2040.24 C 1580.26 2038.88 1593.46 2044.69 1580.38 2056.09 C 1567.68 2058.05 1556 2052.42 1567.3 2040.24 z"/>
<path transform="translate(0,0)" fill="rgb(120,53,28)" d="M 1630.67 393.062 C 1690.31 392.446 1748.8 415.406 1791.84 457.018 C 1829.29 493.216 1840.94 531.503 1865.81 575.187 C 1892.3 621.743 1923.65 668.943 1959.35 709.115 C 1992.32 745.069 2031.18 779.62 2070.52 808.378 C 2115.74 841.439 2155.84 861.614 2191.26 906.433 C 2249.77 980.481 2248.15 1079 2178.7 1145.12 C 2170.43 1153 2156.66 1166.5 2145.97 1171.34 C 2127.59 1186.82 2097.66 1199.77 2075.12 1207.4 C 1964.42 1244.9 1812.41 1224.31 1735.84 1130.31 C 1769.49 1116.06 1786.47 1108.62 1817.99 1089.64 C 1848.1 1069.59 1873.1 1049.85 1893.48 1019.2 C 1924.42 972.667 1927.45 916.591 1895.33 869.794 C 1873.46 837.941 1849.62 824.424 1816.75 806.514 C 1831.78 651.574 1776.99 527.12 1664.3 422.137 C 1653.57 412.147 1641.1 402.993 1630.67 393.062 z"/>
<path transform="translate(0,0)" fill="rgb(78,29,25)" d="M 1735.84 1130.31 C 1769.49 1116.06 1786.47 1108.62 1817.99 1089.64 C 1848.17 1138.12 1908.32 1172.47 1962.88 1185.2 C 2008.98 1195.56 2056.85 1195.16 2102.77 1184.05 C 2117.7 1180.36 2131.82 1174.99 2145.97 1171.34 C 2127.59 1186.82 2097.66 1199.77 2075.12 1207.4 C 1964.42 1244.9 1812.41 1224.31 1735.84 1130.31 z"/>
<path transform="translate(0,0)" fill="rgb(251,250,249)" d="M 2136.44 923.955 C 2155.38 923.12 2163.32 930.55 2172.32 947.34 C 2180.92 963.378 2187.79 985.715 2184.35 1003.95 C 2183.25 1009.77 2176.16 1014 2171.32 1016.33 C 2155.8 1019.1 2150.15 1017.32 2140.53 1004.9 C 2139.95 1001.43 2137.5 986.415 2137.67 983.246 C 2138.63 965.376 2107.32 934.167 2134.33 924.775 L 2136.44 923.955 z"/>
<path transform="translate(0,0)" fill="rgb(251,250,249)" d="M 2155.58 1039.14 C 2183.64 1037.95 2190.9 1062.19 2167.19 1072.41 C 2137.02 1074.49 2131.34 1049.15 2155.58 1039.14 z"/>
<path transform="translate(0,0)" fill="rgb(120,53,28)" d="M 663.999 1167.99 C 619.935 1203.84 548.818 1222.62 492.8 1225.03 C 411.719 1228.05 330.015 1206.39 268.631 1152.15 C 192.861 1085.19 187.169 987.621 247.266 908.146 C 284.399 859.04 329.471 837.199 377.66 800.886 C 415.775 772.285 451.035 740.065 482.948 704.677 C 519.999 663.454 554.174 610.599 581.099 562.163 C 601.714 525.08 609.464 494.571 641.07 462.237 C 686.373 415.891 742.098 394.33 805.887 392.457 C 790.836 405.799 774.654 419.06 760.218 433.013 C 714.92 476.467 678.729 528.507 653.757 586.097 C 625.238 649.071 609.56 738.1 621.335 806.839 C 580.683 825.484 542.66 854.335 528.012 897.64 C 486.578 1020.13 612.488 1094.42 704.29 1132.03 C 693.67 1143.44 677.58 1160.94 663.999 1167.99 z"/>
<path transform="translate(0,0)" fill="rgb(78,29,25)" d="M 663.999 1167.99 C 619.935 1203.84 548.818 1222.62 492.8 1225.03 C 411.719 1228.05 330.015 1206.39 268.631 1152.15 C 192.861 1085.19 187.169 987.621 247.266 908.146 C 284.399 859.04 329.471 837.199 377.66 800.886 C 415.775 772.285 451.035 740.065 482.948 704.677 C 519.999 663.454 554.174 610.599 581.099 562.163 C 601.714 525.08 609.464 494.571 641.07 462.237 C 686.373 415.891 742.098 394.33 805.887 392.457 C 790.836 405.799 774.654 419.06 760.218 433.013 C 714.92 476.467 678.729 528.507 653.757 586.097 L 650.364 586.685 C 613.246 643.702 577.299 691.758 527.552 739.146 C 505.332 760.334 482.046 780.374 457.783 799.187 C 433.098 818.538 406.822 836.767 383.396 857.559 C 333.896 901.608 292.115 968.78 305.747 1037.48 C 315.383 1086.05 349.251 1126.65 389.748 1152.65 C 462.39 1199.27 556.037 1202.97 636.626 1176.97 C 645.17 1174.22 655.513 1170.09 663.999 1167.99 z"/>
<path transform="translate(0,0)" fill="rgb(251,250,249)" d="M 1810.15 1557.8 C 1853.59 1529.16 1885.64 1510.37 1936.77 1495.52 C 1966.27 1533.92 1991.03 1568.85 2012.36 1612.79 C 2019.66 1627.91 2026.07 1643.46 2031.54 1659.34 C 2031.86 1660.29 2034.73 1668.81 2034.68 1668.78 C 2046.85 1675.91 2060.17 1678.73 2073.08 1685.12 C 2105.53 1701.17 2150.34 1733.15 2146.86 1774.32 C 2145.68 1788.31 2132.42 1796.56 2121.25 1802.36 C 2110.68 1771.49 2092.2 1743.7 2063.59 1724.16 C 2061.72 1722.88 2061.78 1723.28 2059.42 1723.76 C 2059.28 1727.45 2059.63 1729.05 2062.59 1731.83 C 2086.09 1753.9 2134.49 1804.46 2100.31 1836.29 C 2087.64 1848.08 2067.29 1848.18 2050.66 1845.06 C 2050.88 1837.62 2050.82 1824.91 2048.64 1817.88 C 2043.3 1800.68 2022.41 1763.93 2006.79 1755.55 L 2003.62 1755.61 L 2001.73 1757.59 C 2002.79 1769 2055.56 1807.74 2039.21 1849.87 C 2010.76 1892.28 1948.98 1855.79 1929.6 1823.3 C 1924.94 1815.48 1913.59 1793.33 1907.27 1790.17 C 1896.63 1794.37 1896.92 1806.52 1877.04 1816.49 C 1840.84 1829.51 1801.62 1805.17 1807.11 1764.74 C 1811.37 1733.36 1835.32 1715.04 1858.57 1696.78 C 1839.5 1646.32 1819.73 1616.59 1788.25 1573.42 C 1795.29 1567.93 1802.79 1562.88 1810.15 1557.8 z"/>
<path transform="translate(0,0)" fill="rgb(193,177,182)" d="M 1788.25 1573.42 C 1795.29 1567.93 1802.79 1562.88 1810.15 1557.8 C 1825.33 1582.91 1887.3 1669.2 1885.22 1698.1 C 1881.52 1704.56 1873.13 1711.91 1867.7 1717.62 C 1846.75 1739.66 1843.46 1772.49 1861.12 1797.7 C 1864.97 1803.19 1871.73 1812.49 1877.04 1816.49 C 1840.84 1829.51 1801.62 1805.17 1807.11 1764.74 C 1811.37 1733.36 1835.32 1715.04 1858.57 1696.78 C 1839.5 1646.32 1819.73 1616.59 1788.25 1573.42 z"/>
<path transform="translate(0,0)" fill="rgb(193,177,182)" d="M 1907.27 1790.17 C 1909.12 1785.96 1908.92 1785.62 1912.64 1782.72 C 1923.59 1780.95 1931.6 1798.1 1939.12 1805.71 C 1967.17 1834.1 1998.63 1851.13 2039.21 1849.87 C 2010.76 1892.28 1948.98 1855.79 1929.6 1823.3 C 1924.94 1815.48 1913.59 1793.33 1907.27 1790.17 z"/>
<path transform="translate(0,0)" fill="rgb(251,250,249)" d="M 470.248 1497.21 C 483.277 1500.95 495.192 1505.18 507.966 1509.66 C 552.353 1528.11 582.973 1544.52 621.748 1573.48 C 593.173 1617.17 571.841 1649.49 554.667 1699.86 C 576.959 1718.09 597.217 1735.6 601.354 1766.08 C 607.234 1809.4 554.086 1839.13 522.27 1808.4 C 516.827 1803.14 511.022 1793.77 505.063 1789.93 C 498.941 1790.64 491.241 1806.74 487.578 1812.86 C 478.102 1828.71 468.959 1839.91 454.846 1851.69 C 449.089 1856.1 442.872 1859.87 436.303 1862.95 C 408.097 1876.29 368.046 1865.66 372.847 1830.19 C 374.428 1818.51 377.866 1813.19 381.284 1802.76 C 386.27 1793.68 390.858 1787.47 396.846 1779.14 C 401.302 1772.95 416.192 1761.44 413.783 1755.25 L 411.877 1754.51 C 400.531 1757.97 382.424 1784.53 376.144 1794.39 C 366.376 1811.09 363.203 1825.85 363.604 1844.82 C 342.363 1849.27 318.722 1847.69 305.696 1827.58 C 289.271 1802.24 317.397 1767.5 333.913 1749.47 C 339.294 1743.59 354.126 1733.1 355.386 1726.31 L 354.002 1724.56 C 347.563 1724.81 338.891 1733.5 334.096 1737.84 C 313.704 1756.31 300.409 1777.06 291.321 1802.96 C 219.059 1766.49 308.504 1692.37 350.136 1679.24 C 357.212 1677.01 382.469 1671.03 383.313 1664.61 L 378.753 1660.43 C 378.52 1655.05 386.139 1639.78 388.699 1634.31 C 410.831 1585.79 438.175 1539.82 470.248 1497.21 z"/>
<path transform="translate(0,0)" fill="rgb(193,177,182)" d="M 470.248 1497.21 C 483.277 1500.95 495.192 1505.18 507.966 1509.66 C 482.307 1536.35 454.697 1590.23 438.954 1624.43 C 433.328 1636.65 428.573 1652.9 422.799 1664.96 C 417.87 1673.91 407.927 1681.24 400.204 1687.57 C 379.323 1704.68 363.424 1728.96 364.813 1756.85 C 365.329 1767.2 367.954 1787.34 376.144 1794.39 C 366.376 1811.09 363.203 1825.85 363.604 1844.82 C 342.363 1849.27 318.722 1847.69 305.696 1827.58 C 289.271 1802.24 317.397 1767.5 333.913 1749.47 C 339.294 1743.59 354.126 1733.1 355.386 1726.31 L 354.002 1724.56 C 347.563 1724.81 338.891 1733.5 334.096 1737.84 C 313.704 1756.31 300.409 1777.06 291.321 1802.96 C 219.059 1766.49 308.504 1692.37 350.136 1679.24 C 357.212 1677.01 382.469 1671.03 383.313 1664.61 L 378.753 1660.43 C 378.52 1655.05 386.139 1639.78 388.699 1634.31 C 410.831 1585.79 438.175 1539.82 470.248 1497.21 z"/>
<path transform="translate(0,0)" fill="rgb(193,177,182)" d="M 381.284 1802.76 C 383.036 1810.97 407.687 1830.97 415.101 1835.78 C 427.232 1843.54 440.716 1848.93 454.846 1851.69 C 449.089 1856.1 442.872 1859.87 436.303 1862.95 C 408.097 1876.29 368.046 1865.66 372.847 1830.19 C 374.428 1818.51 377.866 1813.19 381.284 1802.76 z"/>
<path transform="translate(0,0)" fill="rgb(165,95,69)" d="M 1131.19 271.731 C 1235.63 257.833 1363.85 270.758 1461.57 310.522 C 1496.56 355.153 1436.41 372.915 1403.75 369.968 C 1361.22 366.13 1383.27 364.163 1357.79 387.801 C 1308.74 433.319 1199.24 434.44 1150.96 386.218 C 1144.77 380.216 1141.4 366.188 1135.33 363.228 C 1125.86 363.559 1116.5 368.261 1106.71 369.796 C 1069.12 375.687 1012.34 375.806 989.516 338.896 C 985.528 321.006 993.025 311.439 1004.79 299.138 C 1041.75 287.482 1092.52 275.383 1131.19 271.731 z"/>
<path transform="translate(0,0)" fill="rgb(120,53,28)" d="M 1004.79 299.138 C 1041.75 287.482 1092.52 275.383 1131.19 271.731 C 1103.2 280.905 1010.15 320.693 989.516 338.896 C 985.528 321.006 993.025 311.439 1004.79 299.138 z"/>
<path transform="translate(0,0)" fill="rgb(251,250,249)" d="M 1586.47 1872.72 C 1604.48 1861.09 1618.13 1850.54 1634.67 1836.94 C 1724.77 1917.13 1813.27 1955.47 1931.42 1978.88 C 1904.05 1995.96 1876.69 2014.95 1868.91 2048.37 L 1868.62 2049.65 C 1869.11 2074.16 1873.9 2079.28 1894.17 2091.93 C 1805.46 2097.03 1700.12 2077.72 1621.61 2035.43 C 1616.83 2016.67 1614.44 1996.31 1609.17 1978.09 C 1604.21 1952.6 1593.89 1895.79 1586.47 1872.72 z"/>
<path transform="translate(0,0)" fill="rgb(193,177,182)" d="M 1609.17 1978.09 C 1615.99 1984.68 1636.61 1995.31 1645.93 2000.02 C 1713.24 2034.09 1792.19 2058.62 1867.69 2063.39 C 1867.46 2059.33 1866.62 2052.95 1868.62 2049.65 C 1869.11 2074.16 1873.9 2079.28 1894.17 2091.93 C 1805.46 2097.03 1700.12 2077.72 1621.61 2035.43 C 1616.83 2016.67 1614.44 1996.31 1609.17 1978.09 z"/>
<path transform="translate(0,0)" fill="rgb(120,53,28)" d="M 602.057 2238.44 C 621.542 2176.4 677.954 2146.38 738.792 2133.73 C 761.696 2128.96 772.562 2127.1 795.457 2133.11 C 876.488 2161.95 987.177 2171.88 1072.25 2155.48 L 1072.76 2238.48 L 693.421 2238.53 L 602.057 2238.44 z"/>
<path transform="translate(0,0)" fill="rgb(78,29,25)" d="M 602.057 2238.44 C 621.542 2176.4 677.954 2146.38 738.792 2133.73 C 761.696 2128.96 772.562 2127.1 795.457 2133.11 C 757.246 2146.53 703.612 2197.88 693.421 2238.53 L 602.057 2238.44 z"/>
<path transform="translate(0,0)" fill="rgb(108,148,124)" d="M 515.338 1379.01 C 536.474 1378.12 557.291 1383.95 577.401 1389.8 C 627.426 1408.49 668.915 1427.19 707.837 1465.94 C 687.036 1505.97 672.874 1536.16 662.556 1580.71 L 650.773 1589.58 C 633.541 1569.27 609.8 1555.98 587.769 1541.11 C 583.428 1539.34 569.135 1530.76 563.835 1527.85 C 550.508 1520.42 536.752 1513.78 522.639 1507.97 C 507.858 1501.78 492.721 1496.48 477.309 1492.1 C 468.155 1489.58 425.059 1482.82 433.683 1465.07 C 446.973 1437.72 489.027 1394.19 515.338 1379.01 z"/>
<path transform="translate(0,0)" fill="rgb(61,92,82)" d="M 515.338 1379.01 C 536.474 1378.12 557.291 1383.95 577.401 1389.8 C 560.505 1405.72 516.77 1447.3 512.013 1471.29 C 511.191 1475.44 516.257 1480.01 519.306 1482.82 C 537.334 1499.48 571.623 1523.65 587.769 1541.11 C 583.428 1539.34 569.135 1530.76 563.835 1527.85 C 550.508 1520.42 536.752 1513.78 522.639 1507.97 C 507.858 1501.78 492.721 1496.48 477.309 1492.1 C 468.155 1489.58 425.059 1482.82 433.683 1465.07 C 446.973 1437.72 489.027 1394.19 515.338 1379.01 z"/>
<path transform="translate(0,0)" fill="rgb(108,148,124)" d="M 1884.07 1377.94 C 1896.69 1377.05 1901.54 1377.98 1911.62 1386.57 C 1932.74 1404.93 1953.19 1426.87 1970.11 1449.02 C 1990.97 1476.33 1967.96 1481.01 1946.25 1486.2 C 1885.37 1500.75 1838.19 1528.63 1787.37 1564.93 C 1778.32 1571.65 1772.96 1576.95 1765.61 1585.3 C 1760.15 1580.37 1754.63 1575.05 1749.24 1570.01 C 1740.69 1539.26 1722.16 1494.17 1706.22 1466.98 C 1749.09 1422.7 1822.29 1385.61 1884.07 1377.94 z"/>
<path transform="translate(0,0)" fill="rgb(251,250,249)" d="M 1909.44 1411.78 L 1910.48 1411.86 C 1918.85 1412.44 1923.3 1415.85 1927.85 1423.05 C 1934.96 1434.27 1951.61 1442.35 1936.28 1452.05 C 1918.08 1450.53 1916.39 1437.63 1904.27 1424.62 C 1899.01 1418.97 1904.24 1414.84 1909.44 1411.78 z"/>
<path transform="translate(0,0)" fill="rgb(120,53,28)" d="M 1414.78 2169.65 C 1461.12 2167.43 1507.16 2160.92 1552.3 2150.21 C 1562.64 2147.77 1613.59 2131.21 1618.59 2131.73 C 1679.6 2138.07 1753.49 2174.38 1770.62 2238.46 L 1393.54 2238.55 C 1392.45 2217.99 1393.22 2191.79 1393.22 2170.8 C 1401.05 2170.69 1407.08 2170.86 1414.78 2169.65 z"/>
<path transform="translate(0,0)" fill="rgb(251,250,249)" d="M 1651.84 2167.31 C 1669.68 2165.63 1671.76 2172.96 1686.92 2178.41 C 1697.62 2182.25 1708.24 2190.73 1694.53 2200 L 1692.89 2201.15 C 1678.27 2203.41 1673.99 2197.94 1661.23 2192.59 C 1650.96 2188.28 1636.35 2179.81 1650.08 2168.77 L 1651.84 2167.31 z"/>
<path transform="translate(0,0)" fill="rgb(165,95,69)" d="M 1942.88 1980.43 C 1998.42 1991.23 2078.73 1989.07 2134.21 1979.9 C 2116.31 2001.9 2094.99 2020.87 2071.06 2036.09 C 2034.19 2062.49 1984.52 2077.68 1940.42 2086.33 C 1914.28 2091.46 1892.25 2093.72 1878.6 2065.19 C 1872.02 2024.42 1913 1998.64 1942.88 1980.43 z"/>
<path transform="translate(0,0)" fill="rgb(120,53,28)" d="M 1878.6 2065.19 C 1956.3 2068.41 1998.75 2057.59 2071.06 2036.09 C 2034.19 2062.49 1984.52 2077.68 1940.42 2086.33 C 1914.28 2091.46 1892.25 2093.72 1878.6 2065.19 z"/>
<path transform="translate(0,0)" fill="rgb(108,148,124)" d="M 973.47 1191.89 C 996.233 1193.39 1029.71 1195.61 1052.01 1198.3 C 1061.29 1205.57 1080.6 1216.35 1091.49 1220.94 C 1112.21 1231.75 1137.67 1241.47 1160.08 1248.21 C 1131.56 1280.62 1108.88 1308.65 1091.76 1349.48 C 1042.76 1318.89 991.779 1278.76 975.642 1221.04 C 972.974 1209.81 973.373 1203.25 973.47 1191.89 z"/>
<path transform="translate(0,0)" fill="rgb(61,92,82)" d="M 973.47 1191.89 C 996.233 1193.39 1029.71 1195.61 1052.01 1198.3 C 1061.29 1205.57 1080.6 1216.35 1091.49 1220.94 C 1047.96 1218.93 1019.01 1218.82 975.642 1221.04 C 972.974 1209.81 973.373 1203.25 973.47 1191.89 z"/>
<path transform="translate(0,0)" fill="rgb(108,148,124)" d="M 1437.98 1193.91 L 1450.67 1192.98 C 1453.13 1263.13 1386.92 1313.63 1334.79 1349.7 C 1328.95 1337.06 1323.97 1326.43 1317 1314.37 C 1300.75 1289.14 1285.96 1270.7 1265.89 1248.24 C 1307.11 1235.04 1339.72 1221.08 1377.15 1199.53 C 1380.94 1197.34 1429.97 1194.56 1437.98 1193.91 z"/>
<path transform="translate(0,0)" fill="rgb(120,53,28)" d="M 711.148 2278.98 C 685.297 2278.35 643.227 2283.59 618.517 2273.47 C 612.667 2271.07 596.126 2254.47 602.531 2246.58 C 618.948 2245.19 642.164 2245.94 659.132 2245.89 L 746.569 2245.3 L 833.371 2245.21 C 848.96 2245.2 869.477 2244.62 884.724 2245.71 L 1073.79 2246.37 C 1070.1 2258.23 1066.95 2266.18 1055.25 2272.63 C 1042.93 2279.43 1029.92 2279.18 1016.37 2279.15 C 995.1 2279.1 973.819 2278.9 952.544 2278.92 L 792.244 2278.89 C 767.658 2278.87 734.773 2277.87 711.148 2278.98 z"/>
<path transform="translate(0,0)" fill="rgb(78,29,25)" d="M 711.148 2278.98 C 685.297 2278.35 643.227 2283.59 618.517 2273.47 C 612.667 2271.07 596.126 2254.47 602.531 2246.58 C 618.948 2245.19 642.164 2245.94 659.132 2245.89 L 746.569 2245.3 L 833.371 2245.21 C 848.96 2245.2 869.477 2244.62 884.724 2245.71 L 883.488 2245.81 C 867.846 2247 846.099 2246.46 829.997 2246.47 L 739.301 2246.53 C 730.54 2246.53 695.562 2245.03 690.28 2248.93 C 684.239 2260.28 701.379 2274.9 711.148 2278.98 z"/>
<path transform="translate(0,0)" fill="rgb(120,53,28)" d="M 1432.35 2245.68 L 1659.24 2245.95 C 1684.88 2245.86 1710.53 2245.95 1736.17 2246.2 C 1744.65 2246.27 1763.87 2245.74 1770.91 2247.42 C 1775.02 2256.62 1762.26 2272.3 1754.49 2274.26 C 1723.22 2282.13 1678.67 2279.01 1646.94 2279 L 1490.94 2278.96 C 1470.37 2278.97 1434.28 2277.81 1414.53 2279.15 C 1403.43 2274.88 1386.81 2263.15 1394.59 2249.41 C 1402.22 2243.62 1418.31 2247.23 1430.88 2245.86 L 1432.35 2245.68 z"/>
<path transform="translate(0,0)" fill="rgb(251,250,249)" d="M 1067.24 1198.97 C 1117.79 1200.35 1167.38 1202.65 1218.11 1202.83 C 1265.81 1202.62 1313.5 1201.43 1361.16 1199.25 C 1353.26 1203.69 1345.27 1207.96 1337.18 1212.04 L 1330.67 1215.1 C 1302.34 1228.19 1281.86 1236.02 1251.56 1243.93 C 1234.75 1270.29 1221.61 1298.82 1212.48 1328.72 C 1201 1294.31 1192.99 1275.08 1173.68 1243.93 C 1152.8 1238.59 1132.44 1231.42 1112.81 1222.51 C 1098.03 1216.69 1080.68 1207.36 1067.24 1198.97 z"/>
<path transform="translate(0,0)" fill="rgb(193,177,182)" d="M 1067.24 1198.97 C 1117.79 1200.35 1167.38 1202.65 1218.11 1202.83 C 1265.81 1202.62 1313.5 1201.43 1361.16 1199.25 C 1353.26 1203.69 1345.27 1207.96 1337.18 1212.04 C 1332.45 1211.18 1332.62 1211.11 1327.93 1211.9 C 1282.17 1215.92 1237.44 1219.57 1191.47 1220.41 C 1180.54 1220.61 1117.78 1219.99 1112.81 1222.51 C 1098.03 1216.69 1080.68 1207.36 1067.24 1198.97 z"/>
<path transform="translate(0,0)" fill="rgb(78,29,25)" d="M 1298.93 2164.41 C 1329.32 2167.54 1360.87 2171.87 1391.79 2170.12 C 1399.94 2169.66 1406.46 2169.25 1414.78 2169.65 C 1407.08 2170.86 1401.05 2170.69 1393.22 2170.8 C 1393.22 2191.79 1392.45 2217.99 1393.54 2238.55 C 1362.41 2239.05 1330.02 2238.54 1298.76 2238.61 C 1298.52 2214.55 1298.7 2188.54 1298.93 2164.41 z"/>
<path transform="translate(0,0)" fill="rgb(78,29,25)" d="M 1296.95 2246.55 L 1374.94 2245.87 C 1393.09 2245.66 1414.52 2244.73 1432.35 2245.68 L 1430.88 2245.86 C 1418.31 2247.23 1402.22 2243.62 1394.59 2249.41 C 1386.81 2263.15 1403.43 2274.88 1414.53 2279.15 C 1394.88 2278.52 1374.3 2279.33 1354.58 2279.08 C 1325.35 2278.71 1305.42 2278.63 1296.95 2246.55 z"/>
<path transform="translate(0,0)" fill="rgb(127,135,130)" d="M 629.33 1579.03 L 630.02 1579.45 C 631.616 1580.43 644.814 1589.79 636.37 1589.68 C 624.321 1587.62 622.656 1589 629.33 1579.03 z"/>
<path transform="translate(0,0)" fill="rgb(127,135,130)" d="M 1779.65 1579.88 C 1782.09 1581.06 1786.85 1584.73 1783.02 1587.11 L 1781.94 1587.82 C 1781.12 1587.7 1780.31 1587.58 1779.49 1587.48 C 1776.53 1587.14 1774.63 1586.28 1776.94 1583.34 L 1779.65 1579.88 z"/>
</svg>