<svg xmlns="http://www.w3.org/2000/svg" xmlns:xlink="http://www.w3.org/1999/xlink" viewBox="948 828 108 68" width="108" height="68"><defs><clipPath id="agiz-az-k0"><path d="M965 844.56C974.3 850.76 987.32 858.2 996 852 1009.02 858.2 1027.25 850.76 1039.4 844.56 1043.12 869.67 1019.87 878.04 998.48 878.04 978.95 878.04 961.28 869.67 965 844.56Z"/></clipPath></defs><g><g><g fill="rgb(64,19,18)" stroke="rgb(64,19,18)" stroke-width="17" stroke-linejoin="round" stroke-linecap="round"><path d="M965 844.56C974.3 850.76 987.32 858.2 996 852 1009.02 858.2 1027.25 850.76 1039.4 844.56 1043.12 869.67 1019.87 878.04 998.48 878.04 978.95 878.04 961.28 869.67 965 844.56Z"/></g><path d="M965 844.56C974.3 850.76 987.32 858.2 996 852 1009.02 858.2 1027.25 850.76 1039.4 844.56 1043.12 869.67 1019.87 878.04 998.48 878.04 978.95 878.04 961.28 869.67 965 844.56Z" fill="rgb(122,32,36)"/></g><g clip-path="url(#agiz-az-k0)"><path d="M979.88 874.13a22.32 7.16 0 1 1 44.64 0 22.32 7.16 0 1 1-44.64 0Z" fill="rgb(240,112,104)"/></g></g></svg>