<svg xmlns="http://www.w3.org/2000/svg" xmlns:xlink="http://www.w3.org/1999/xlink" viewBox="1232 1544 200 516" width="200" height="516"><defs><clipPath id="kol-alt-sol-k0"><path d="M1383.85 1625.52C1383.85 1625.52 1384.06 1629.05 1384.2 1631.36C1384.33 1633.67 1384.48 1636.39 1384.65 1639.36C1384.82 1642.33 1385 1645.65 1385.21 1649.17C1385.43 1652.68 1385.66 1656.49 1385.93 1660.45C1386.2 1664.41 1386.49 1668.61 1386.81 1672.92C1387.14 1677.23 1387.48 1681.61 1387.9 1686.29C1388.31 1690.98 1388.78 1695.85 1389.31 1701.03C1389.84 1706.22 1390.45 1711.79 1391.07 1717.42C1391.68 1723.05 1392.35 1728.96 1392.98 1734.82C1393.62 1740.67 1394.28 1746.7 1394.88 1752.55C1395.48 1758.41 1396.08 1764.31 1396.58 1769.94C1397.09 1775.57 1397.53 1780.91 1397.91 1786.34C1398.28 1791.77 1398.58 1797.2 1398.85 1802.51C1399.11 1807.82 1399.32 1813.09 1399.5 1818.21C1399.68 1823.34 1399.82 1828.37 1399.94 1833.26C1400.06 1838.15 1400.15 1842.93 1400.24 1847.55C1400.33 1852.17 1400.4 1856.68 1400.47 1860.98C1400.55 1865.29 1400.62 1869.26 1400.68 1873.39C1400.75 1877.52 1400.79 1881.44 1400.86 1885.75C1400.92 1890.05 1400.98 1894.72 1401.05 1899.23C1401.11 1903.74 1401.19 1908.42 1401.26 1912.8C1401.33 1917.18 1401.41 1921.55 1401.49 1925.52C1401.57 1929.48 1401.65 1933.28 1401.74 1936.59C1401.83 1939.89 1402.03 1945.35 1402.03 1945.35C1402.03 1945.35 1283.34 1963.05 1283.34 1963.05C1283.34 1963.05 1282.36 1958.9 1281.65 1955.96C1280.94 1953.02 1280.03 1949.33 1279.09 1945.39C1278.15 1941.46 1277.07 1936.96 1276.03 1932.34C1274.98 1927.73 1273.85 1922.72 1272.81 1917.68C1271.77 1912.63 1270.71 1907.34 1269.79 1902.1C1268.87 1896.85 1268.02 1891.45 1267.3 1886.23C1266.58 1881.01 1266.01 1875.93 1265.47 1870.77C1264.92 1865.61 1264.46 1860.45 1264.02 1855.28C1263.58 1850.11 1263.2 1844.93 1262.84 1839.75C1262.48 1834.58 1262.17 1829.4 1261.85 1824.25C1261.54 1819.09 1261.26 1813.95 1260.96 1808.81C1260.67 1803.68 1260.38 1798.79 1260.09 1793.45C1259.8 1788.11 1259.5 1782.5 1259.24 1776.78C1258.98 1771.07 1258.75 1765.07 1258.52 1759.16C1258.3 1753.25 1258.09 1747.2 1257.89 1741.34C1257.69 1735.48 1257.5 1729.58 1257.3 1724C1257.11 1718.43 1256.92 1712.92 1256.72 1707.88C1256.52 1702.83 1256.32 1698.17 1256.1 1693.71C1255.89 1689.24 1255.65 1685.16 1255.41 1681.07C1255.17 1676.99 1254.91 1672.98 1254.66 1669.2C1254.41 1665.41 1254.15 1661.75 1253.91 1658.35C1253.67 1654.95 1253.42 1651.73 1253.21 1648.8C1252.99 1645.87 1252.78 1643.16 1252.6 1640.77C1252.43 1638.38 1252.15 1634.48 1252.15 1634.48C1252.15 1634.48 1383.85 1625.52 1383.85 1625.52Z"/><path d="M1250.5 1630a67.5 67.5 0 1 1 135 0a67.5 67.5 0 1 1 -135 0Z"/><path d="M1281.19 1954.2a61.5 61.5 0 1 1 123 0a61.5 61.5 0 1 1 -123 0Z"/></clipPath><clipPath id="kol-alt-sol-k1"><path d="M-9000 -9000H9000V9000H-9000Z"/><path d="M-8051 -8000h1v1h-1Z"/></clipPath><clipPath id="kol-alt-sol-k2"><path d="M1402.51 1949.65C1423.8 1961.4 1410.58 2029.26 1410.58 2029.26C1410.58 2029.26 1369.97 2040.38 1349.37 2041.95C1328.76 2043.52 1286.94 2038.68 1286.94 2038.68C1286.94 2038.68 1263.6 1973.6 1282.86 1958.76C1302.12 1943.92 1381.23 1937.9 1402.51 1949.65Z"/><path d="M-7200 -7000h1v1h-1Z"/></clipPath></defs><g><g><g fill="rgb(64,19,18)" stroke="rgb(64,19,18)" stroke-width="17" stroke-linejoin="round" stroke-linecap="round"><path d="M1383.85 1625.52C1383.85 1625.52 1384.06 1629.05 1384.2 1631.36C1384.33 1633.67 1384.48 1636.39 1384.65 1639.36C1384.82 1642.33 1385 1645.65 1385.21 1649.17C1385.43 1652.68 1385.66 1656.49 1385.93 1660.45C1386.2 1664.41 1386.49 1668.61 1386.81 1672.92C1387.14 1677.23 1387.48 1681.61 1387.9 1686.29C1388.31 1690.98 1388.78 1695.85 1389.31 1701.03C1389.84 1706.22 1390.45 1711.79 1391.07 1717.42C1391.68 1723.05 1392.35 1728.96 1392.98 1734.82C1393.62 1740.67 1394.28 1746.7 1394.88 1752.55C1395.48 1758.41 1396.08 1764.31 1396.58 1769.94C1397.09 1775.57 1397.53 1780.91 1397.91 1786.34C1398.28 1791.77 1398.58 1797.2 1398.85 1802.51C1399.11 1807.82 1399.32 1813.09 1399.5 1818.21C1399.68 1823.34 1399.82 1828.37 1399.94 1833.26C1400.06 1838.15 1400.15 1842.93 1400.24 1847.55C1400.33 1852.17 1400.4 1856.68 1400.47 1860.98C1400.55 1865.29 1400.62 1869.26 1400.68 1873.39C1400.75 1877.52 1400.79 1881.44 1400.86 1885.75C1400.92 1890.05 1400.98 1894.72 1401.05 1899.23C1401.11 1903.74 1401.19 1908.42 1401.26 1912.8C1401.33 1917.18 1401.41 1921.55 1401.49 1925.52C1401.57 1929.48 1401.65 1933.28 1401.74 1936.59C1401.83 1939.89 1402.03 1945.35 1402.03 1945.35C1402.03 1945.35 1283.34 1963.05 1283.34 1963.05C1283.34 1963.05 1282.36 1958.9 1281.65 1955.96C1280.94 1953.02 1280.03 1949.33 1279.09 1945.39C1278.15 1941.46 1277.07 1936.96 1276.03 1932.34C1274.98 1927.73 1273.85 1922.72 1272.81 1917.68C1271.77 1912.63 1270.71 1907.34 1269.79 1902.1C1268.87 1896.85 1268.02 1891.45 1267.3 1886.23C1266.58 1881.01 1266.01 1875.93 1265.47 1870.77C1264.92 1865.61 1264.46 1860.45 1264.02 1855.28C1263.58 1850.11 1263.2 1844.93 1262.84 1839.75C1262.48 1834.58 1262.17 1829.4 1261.85 1824.25C1261.54 1819.09 1261.26 1813.95 1260.96 1808.81C1260.67 1803.68 1260.38 1798.79 1260.09 1793.45C1259.8 1788.11 1259.5 1782.5 1259.24 1776.78C1258.98 1771.07 1258.75 1765.07 1258.52 1759.16C1258.3 1753.25 1258.09 1747.2 1257.89 1741.34C1257.69 1735.48 1257.5 1729.58 1257.3 1724C1257.11 1718.43 1256.92 1712.92 1256.72 1707.88C1256.52 1702.83 1256.32 1698.17 1256.1 1693.71C1255.89 1689.24 1255.65 1685.16 1255.41 1681.07C1255.17 1676.99 1254.91 1672.98 1254.66 1669.2C1254.41 1665.41 1254.15 1661.75 1253.91 1658.35C1253.67 1654.95 1253.42 1651.73 1253.21 1648.8C1252.99 1645.87 1252.78 1643.16 1252.6 1640.77C1252.43 1638.38 1252.15 1634.48 1252.15 1634.48C1252.15 1634.48 1383.85 1625.52 1383.85 1625.52Z"/><path d="M1252 1630a66 66 0 1 1 132 0a66 66 0 1 1 -132 0Z"/><path d="M1282.69 1954.2a60 60 0 1 1 120 0a60 60 0 1 1 -120 0Z"/></g><path d="M1383.85 1625.52C1383.85 1625.52 1384.06 1629.05 1384.2 1631.36C1384.33 1633.67 1384.48 1636.39 1384.65 1639.36C1384.82 1642.33 1385 1645.65 1385.21 1649.17C1385.43 1652.68 1385.66 1656.49 1385.93 1660.45C1386.2 1664.41 1386.49 1668.61 1386.81 1672.92C1387.14 1677.23 1387.48 1681.61 1387.9 1686.29C1388.31 1690.98 1388.78 1695.85 1389.31 1701.03C1389.84 1706.22 1390.45 1711.79 1391.07 1717.42C1391.68 1723.05 1392.35 1728.96 1392.98 1734.82C1393.62 1740.67 1394.28 1746.7 1394.88 1752.55C1395.48 1758.41 1396.08 1764.31 1396.58 1769.94C1397.09 1775.57 1397.53 1780.91 1397.91 1786.34C1398.28 1791.77 1398.58 1797.2 1398.85 1802.51C1399.11 1807.82 1399.32 1813.09 1399.5 1818.21C1399.68 1823.34 1399.82 1828.37 1399.94 1833.26C1400.06 1838.15 1400.15 1842.93 1400.24 1847.55C1400.33 1852.17 1400.4 1856.68 1400.47 1860.98C1400.55 1865.29 1400.62 1869.26 1400.68 1873.39C1400.75 1877.52 1400.79 1881.44 1400.86 1885.75C1400.92 1890.05 1400.98 1894.72 1401.05 1899.23C1401.11 1903.74 1401.19 1908.42 1401.26 1912.8C1401.33 1917.18 1401.41 1921.55 1401.49 1925.52C1401.57 1929.48 1401.65 1933.28 1401.74 1936.59C1401.83 1939.89 1402.03 1945.35 1402.03 1945.35C1402.03 1945.35 1283.34 1963.05 1283.34 1963.05C1283.34 1963.05 1282.36 1958.9 1281.65 1955.96C1280.94 1953.02 1280.03 1949.33 1279.09 1945.39C1278.15 1941.46 1277.07 1936.96 1276.03 1932.34C1274.98 1927.73 1273.85 1922.72 1272.81 1917.68C1271.77 1912.63 1270.71 1907.34 1269.79 1902.1C1268.87 1896.85 1268.02 1891.45 1267.3 1886.23C1266.58 1881.01 1266.01 1875.93 1265.47 1870.77C1264.92 1865.61 1264.46 1860.45 1264.02 1855.28C1263.58 1850.11 1263.2 1844.93 1262.84 1839.75C1262.48 1834.58 1262.17 1829.4 1261.85 1824.25C1261.54 1819.09 1261.26 1813.95 1260.96 1808.81C1260.67 1803.68 1260.38 1798.79 1260.09 1793.45C1259.8 1788.11 1259.5 1782.5 1259.24 1776.78C1258.98 1771.07 1258.75 1765.07 1258.52 1759.16C1258.3 1753.25 1258.09 1747.2 1257.89 1741.34C1257.69 1735.48 1257.5 1729.58 1257.3 1724C1257.11 1718.43 1256.92 1712.92 1256.72 1707.88C1256.52 1702.83 1256.32 1698.17 1256.1 1693.71C1255.89 1689.24 1255.65 1685.16 1255.41 1681.07C1255.17 1676.99 1254.91 1672.98 1254.66 1669.2C1254.41 1665.41 1254.15 1661.75 1253.91 1658.35C1253.67 1654.95 1253.42 1651.73 1253.21 1648.8C1252.99 1645.87 1252.78 1643.16 1252.6 1640.77C1252.43 1638.38 1252.15 1634.48 1252.15 1634.48C1252.15 1634.48 1383.85 1625.52 1383.85 1625.52Z" fill="rgb(232,170,58)"/><path d="M1252 1630a66 66 0 1 1 132 0a66 66 0 1 1 -132 0Z" fill="rgb(232,170,58)"/><path d="M1282.69 1954.2a60 60 0 1 1 120 0a60 60 0 1 1 -120 0Z" fill="rgb(232,170,58)"/></g><g clip-path="url(#kol-alt-sol-k0)"><path d="M1409.3 1557.64C1409.3 1557.64 1413.15 1614.27 1414 1627.05C1414.85 1639.83 1414.25 1631.56 1414.41 1634.32C1414.56 1637.08 1414.74 1640.23 1414.94 1643.6C1415.14 1646.97 1415.35 1650.65 1415.6 1654.51C1415.85 1658.37 1416.13 1662.49 1416.44 1666.74C1416.75 1670.99 1417.07 1675.41 1417.46 1680.01C1417.85 1684.6 1418.26 1689.27 1418.75 1694.33C1419.24 1699.38 1419.83 1704.79 1420.42 1710.32C1421.01 1715.85 1421.67 1721.68 1422.3 1727.5C1422.94 1733.31 1423.61 1739.32 1424.23 1745.2C1424.84 1751.08 1425.47 1757.04 1426.01 1762.75C1426.55 1768.46 1427.06 1773.95 1427.48 1779.44C1427.9 1784.94 1428.23 1790.35 1428.53 1795.73C1428.83 1801.11 1429.07 1806.53 1429.28 1811.73C1429.49 1816.93 1429.64 1822.03 1429.78 1826.95C1429.92 1831.88 1430.02 1836.68 1430.11 1841.29C1430.2 1845.9 1430.27 1850.37 1430.34 1854.62C1430.4 1858.87 1430.46 1862.9 1430.5 1866.8C1430.55 1870.69 1430.56 1874.03 1430.6 1877.99C1430.63 1881.95 1430.66 1886.26 1430.7 1890.56C1430.74 1894.86 1430.79 1899.45 1430.84 1903.8C1430.9 1908.15 1430.96 1912.57 1431.03 1916.66C1431.1 1920.74 1431.17 1924.69 1431.26 1928.3C1431.36 1931.9 1430.05 1926.3 1431.6 1938.29C1433.15 1950.29 1440.55 2000.27 1440.55 2000.27C1440.55 2000.27 1375.27 2010.01 1375.27 2010.01C1375.27 2010.01 1367.87 1960.12 1366.22 1948.29C1364.58 1936.46 1365.72 1942.5 1365.42 1939.02C1365.12 1935.53 1364.77 1931.53 1364.42 1927.38C1364.07 1923.23 1363.68 1918.66 1363.32 1914.11C1362.95 1909.55 1362.57 1904.71 1362.22 1900.04C1361.87 1895.36 1361.52 1890.59 1361.22 1886.06C1360.92 1881.54 1360.66 1877.35 1360.42 1872.9C1360.18 1868.44 1359.97 1863.95 1359.77 1859.31C1359.56 1854.67 1359.38 1849.9 1359.19 1845.05C1359 1840.19 1358.82 1835.23 1358.62 1830.2C1358.42 1825.17 1358.22 1820.04 1357.98 1814.86C1357.74 1809.68 1357.5 1804.41 1357.2 1799.12C1356.9 1793.83 1356.58 1788.59 1356.2 1783.12C1355.82 1777.64 1355.38 1772 1354.93 1766.25C1354.48 1760.5 1353.97 1754.51 1353.47 1748.61C1352.98 1742.72 1352.45 1736.7 1351.94 1730.9C1351.44 1725.1 1350.92 1719.29 1350.45 1713.81C1349.98 1708.32 1349.52 1702.96 1349.11 1698C1348.71 1693.05 1348.36 1688.53 1348.02 1684.06C1347.69 1679.58 1347.39 1675.3 1347.1 1671.16C1346.81 1667.02 1346.54 1662.99 1346.29 1659.22C1346.05 1655.44 1345.82 1651.82 1345.61 1648.51C1345.4 1645.19 1345.21 1642.07 1345.04 1639.32C1344.87 1636.56 1345.44 1644.78 1344.58 1631.96C1343.72 1619.13 1339.86 1562.36 1339.86 1562.36C1339.86 1562.36 1409.3 1557.64 1409.3 1557.64Z" fill="rgb(196,128,36)"/></g><g><path d="M1386.67 1656.48L1385.94 1658.54L1385.63 1660.56L1385.4 1662.58L1385.22 1664.61L1385.08 1666.67L1384.97 1668.77L1384.88 1670.91L1384.82 1673.07L1384.77 1675.27L1384.74 1677.49L1384.73 1679.74L1384.74 1682.02L1384.76 1684.33L1384.79 1686.65L1384.84 1689L1384.91 1691.4L1384.99 1693.84L1385.09 1696.34L1385.21 1698.9L1385.35 1701.52L1385.51 1704.18L1385.68 1706.89L1385.86 1709.62L1386.05 1712.38L1386.25 1715.17L1386.47 1718.01L1386.69 1720.88L1386.93 1723.77L1387.17 1726.67L1387.41 1729.58L1387.66 1732.51L1387.92 1735.46L1388.19 1738.42L1388.45 1741.39L1388.72 1744.34L1388.99 1747.29L1389.26 1750.23L1389.53 1753.18L1389.8 1756.13L1390.07 1759.05L1390.34 1761.95L1390.6 1764.82L1390.85 1767.65L1391.11 1770.46L1391.35 1773.24L1391.59 1775.99L1391.83 1778.73L1392.06 1781.44L1392.27 1784.14L1392.48 1786.83L1392.69 1789.49L1392.88 1792.15L1393.08 1794.81L1393.27 1797.46L1393.46 1800.11L1393.64 1802.75L1393.82 1805.39L1394 1808.02L1394.17 1810.64L1394.35 1813.24L1394.52 1815.81L1394.69 1818.36L1394.86 1820.9L1395.03 1823.43L1395.2 1825.93L1395.37 1828.42L1395.55 1830.88L1395.72 1833.33L1395.89 1835.75L1396.07 1838.16L1396.24 1840.54L1396.43 1842.91L1396.61 1845.24L1396.8 1847.56L1397 1849.85L1397.19 1852.12L1397.4 1854.37L1397.61 1856.58L1397.83 1858.77L1398.06 1860.93L1398.3 1863.06L1398.54 1865.16L1398.8 1867.25L1399.08 1869.32L1399.37 1871.36L1399.68 1873.37L1400.02 1875.35L1400.41 1877.33L1400.89 1879.31L1401.79 1881.29L1401.83 1881.48L1401.94 1881.64L1402.1 1881.75L1402.29 1881.78L1402.49 1881.74L1402.65 1881.63L1402.75 1881.47L1402.79 1881.28L1403.63 1879.27L1404.04 1877.28L1404.38 1875.29L1404.66 1873.29L1404.91 1871.27L1405.14 1869.22L1405.35 1867.14L1405.54 1865.05L1405.72 1862.93L1405.89 1860.79L1406.04 1858.63L1406.19 1856.44L1406.32 1854.21L1406.45 1851.96L1406.57 1849.68L1406.68 1847.38L1406.78 1845.04L1406.88 1842.69L1406.96 1840.32L1407.04 1837.92L1407.1 1835.49L1407.16 1833.05L1407.21 1830.58L1407.25 1828.09L1407.28 1825.58L1407.29 1823.05L1407.3 1820.5L1407.3 1817.93L1407.29 1815.33L1407.26 1812.72L1407.23 1810.1L1407.18 1807.45L1407.12 1804.78L1407.05 1802.1L1406.96 1799.4L1406.86 1796.7L1406.75 1794.01L1406.62 1791.31L1406.49 1788.6L1406.33 1785.88L1406.16 1783.14L1405.97 1780.38L1405.76 1777.6L1405.54 1774.81L1405.3 1772L1405.04 1769.19L1404.77 1766.35L1404.49 1763.49L1404.2 1760.59L1403.89 1757.67L1403.56 1754.72L1403.22 1751.76L1402.88 1748.81L1402.53 1745.86L1402.17 1742.9L1401.8 1739.94L1401.42 1736.97L1401.04 1734.02L1400.65 1731.08L1400.26 1728.17L1399.87 1725.27L1399.47 1722.38L1399.06 1719.51L1398.66 1716.67L1398.26 1713.86L1397.86 1711.1L1397.46 1708.38L1397.06 1705.68L1396.66 1703.01L1396.27 1700.39L1395.88 1697.83L1395.49 1695.32L1395.12 1692.87L1394.75 1690.48L1394.38 1688.14L1394.01 1685.84L1393.65 1683.56L1393.28 1681.31L1392.92 1679.08L1392.55 1676.87L1392.18 1674.7L1391.8 1672.55L1391.42 1670.43L1391.02 1668.34L1390.61 1666.28L1390.19 1664.27L1389.74 1662.29L1389.25 1660.32L1388.67 1658.36L1387.67 1656.41L1387.62 1656.22L1387.5 1656.07L1387.33 1655.97L1387.14 1655.94L1386.95 1655.99L1386.79 1656.11L1386.7 1656.28Z" fill="rgb(64,19,18)"/><path d="M1257.36 1643.82L1257.84 1644.48L1258.39 1644.96L1258.96 1645.41L1259.54 1645.85L1260.13 1646.28L1260.73 1646.7L1261.32 1647.12L1261.93 1647.53L1262.53 1647.94L1263.15 1648.35L1263.76 1648.76L1264.38 1649.16L1265 1649.57L1265.62 1649.97L1266.24 1650.37L1266.87 1650.76L1267.5 1651.16L1268.13 1651.55L1268.77 1651.94L1269.4 1652.32L1270.04 1652.71L1270.68 1653.08L1271.32 1653.46L1271.97 1653.83L1272.61 1654.19L1273.26 1654.55L1273.91 1654.9L1274.56 1655.25L1275.21 1655.59L1275.86 1655.93L1276.51 1656.26L1277.16 1656.58L1277.82 1656.89L1278.47 1657.2L1279.13 1657.49L1279.79 1657.78L1280.45 1658.06L1281.11 1658.33L1281.77 1658.59L1282.43 1658.84L1283.09 1659.08L1283.75 1659.3L1284.41 1659.52L1285.07 1659.72L1285.74 1659.91L1286.4 1660.08L1287.06 1660.24L1287.71 1660.39L1288.36 1660.53L1289.01 1660.65L1289.65 1660.76L1290.29 1660.85L1290.92 1660.94L1291.55 1661.01L1292.17 1661.07L1292.79 1661.12L1293.41 1661.16L1294.02 1661.2L1294.63 1661.22L1295.23 1661.23L1295.82 1661.24L1296.42 1661.23L1297.01 1661.22L1297.59 1661.21L1298.17 1661.18L1298.75 1661.15L1299.32 1661.11L1299.89 1661.07L1300.45 1661.02L1301.01 1660.97L1301.57 1660.91L1302.13 1660.85L1302.68 1660.79L1303.23 1660.72L1303.78 1660.64L1304.32 1660.57L1304.87 1660.49L1305.41 1660.41L1305.95 1660.33L1306.49 1660.24L1307.03 1660.15L1307.57 1660.06L1308.11 1659.96L1308.65 1659.86L1309.2 1659.75L1309.74 1659.64L1310.29 1659.52L1310.84 1659.38L1311.39 1659.2L1311.98 1658.84L1312.36 1658.79L1312.7 1658.59L1312.94 1658.29L1313.04 1657.91L1312.99 1657.52L1312.79 1657.18L1312.48 1656.95L1312.11 1656.84L1311.57 1656.41L1311.01 1656.17L1310.45 1655.97L1309.88 1655.81L1309.32 1655.66L1308.76 1655.52L1308.19 1655.4L1307.63 1655.29L1307.07 1655.18L1306.52 1655.09L1305.96 1655L1305.41 1654.91L1304.85 1654.83L1304.3 1654.76L1303.76 1654.69L1303.21 1654.62L1302.67 1654.55L1302.12 1654.49L1301.58 1654.43L1301.04 1654.37L1300.51 1654.31L1299.97 1654.25L1299.44 1654.19L1298.91 1654.13L1298.38 1654.07L1297.86 1654.01L1297.33 1653.95L1296.81 1653.88L1296.28 1653.82L1295.76 1653.75L1295.24 1653.67L1294.72 1653.6L1294.19 1653.52L1293.67 1653.44L1293.15 1653.35L1292.63 1653.26L1292.11 1653.17L1291.58 1653.07L1291.06 1652.96L1290.53 1652.85L1290 1652.73L1289.47 1652.61L1288.94 1652.48L1288.4 1652.34L1287.86 1652.19L1287.31 1652.04L1286.76 1651.88L1286.2 1651.71L1285.63 1651.53L1285.05 1651.34L1284.47 1651.14L1283.88 1650.94L1283.29 1650.73L1282.68 1650.52L1282.08 1650.29L1281.46 1650.06L1280.84 1649.83L1280.22 1649.59L1279.59 1649.34L1278.95 1649.09L1278.31 1648.84L1277.67 1648.58L1277.02 1648.32L1276.36 1648.05L1275.71 1647.79L1275.05 1647.52L1274.38 1647.24L1273.71 1646.97L1273.04 1646.7L1272.36 1646.42L1271.68 1646.15L1271 1645.87L1270.32 1645.6L1269.63 1645.32L1268.94 1645.05L1268.25 1644.78L1267.55 1644.52L1266.85 1644.26L1266.15 1644L1265.45 1643.74L1264.75 1643.5L1264.04 1643.26L1263.34 1643.02L1262.63 1642.8L1261.91 1642.59L1261.2 1642.39L1260.48 1642.2L1259.75 1642.05L1259.01 1641.93L1258.19 1642L1257.81 1641.91L1257.43 1641.97L1257.1 1642.18L1256.87 1642.49L1256.78 1642.87L1256.84 1643.26L1257.05 1643.59Z" fill="rgb(64,19,18)"/><path d="M1260.23 1685.82L1260.37 1686.26L1260.58 1686.54L1260.8 1686.8L1261.03 1687.04L1261.27 1687.26L1261.51 1687.48L1261.75 1687.7L1262 1687.91L1262.25 1688.11L1262.49 1688.31L1262.75 1688.51L1263 1688.7L1263.25 1688.89L1263.51 1689.08L1263.76 1689.26L1264.02 1689.44L1264.28 1689.62L1264.54 1689.8L1264.8 1689.98L1265.06 1690.15L1265.32 1690.32L1265.58 1690.49L1265.85 1690.66L1266.11 1690.83L1266.38 1690.99L1266.64 1691.15L1266.91 1691.31L1267.18 1691.47L1267.45 1691.63L1267.72 1691.79L1267.99 1691.94L1268.26 1692.09L1268.53 1692.24L1268.8 1692.39L1269.08 1692.54L1269.35 1692.68L1269.63 1692.83L1269.9 1692.97L1270.18 1693.11L1270.46 1693.25L1270.73 1693.38L1271.01 1693.52L1271.29 1693.65L1271.57 1693.78L1271.86 1693.91L1272.14 1694.04L1272.42 1694.17L1272.7 1694.29L1272.99 1694.42L1273.27 1694.54L1273.56 1694.66L1273.84 1694.78L1274.13 1694.89L1274.42 1695.01L1274.71 1695.12L1275 1695.23L1275.29 1695.34L1275.58 1695.45L1275.87 1695.56L1276.17 1695.66L1276.46 1695.77L1276.75 1695.87L1277.05 1695.97L1277.34 1696.07L1277.64 1696.16L1277.94 1696.26L1278.24 1696.35L1278.54 1696.44L1278.84 1696.53L1279.14 1696.62L1279.44 1696.7L1279.74 1696.78L1280.05 1696.86L1280.35 1696.94L1280.66 1697.02L1280.96 1697.09L1281.27 1697.16L1281.58 1697.23L1281.89 1697.3L1282.21 1697.36L1282.52 1697.42L1282.84 1697.47L1283.15 1697.52L1283.47 1697.57L1283.8 1697.61L1284.12 1697.64L1284.46 1697.66L1284.8 1697.66L1285.15 1697.63L1285.57 1697.46L1285.95 1697.55L1286.33 1697.49L1286.67 1697.28L1286.9 1696.97L1286.99 1696.59L1286.92 1696.2L1286.72 1695.87L1286.4 1695.64L1286.26 1695.21L1286.05 1694.92L1285.83 1694.67L1285.6 1694.43L1285.36 1694.2L1285.12 1693.98L1284.88 1693.77L1284.63 1693.56L1284.39 1693.36L1284.14 1693.16L1283.89 1692.96L1283.63 1692.77L1283.38 1692.58L1283.12 1692.39L1282.87 1692.2L1282.61 1692.02L1282.35 1691.84L1282.09 1691.66L1281.83 1691.49L1281.57 1691.31L1281.31 1691.14L1281.05 1690.97L1280.78 1690.8L1280.52 1690.64L1280.25 1690.47L1279.99 1690.31L1279.72 1690.15L1279.45 1689.99L1279.18 1689.83L1278.91 1689.68L1278.64 1689.53L1278.37 1689.37L1278.1 1689.22L1277.83 1689.07L1277.55 1688.93L1277.28 1688.78L1277 1688.64L1276.73 1688.5L1276.45 1688.36L1276.17 1688.22L1275.9 1688.08L1275.62 1687.95L1275.34 1687.81L1275.06 1687.68L1274.78 1687.55L1274.49 1687.42L1274.21 1687.3L1273.93 1687.17L1273.64 1687.05L1273.36 1686.93L1273.07 1686.81L1272.79 1686.69L1272.5 1686.57L1272.21 1686.46L1271.92 1686.34L1271.63 1686.23L1271.34 1686.12L1271.05 1686.01L1270.76 1685.91L1270.47 1685.8L1270.17 1685.7L1269.88 1685.6L1269.58 1685.5L1269.29 1685.4L1268.99 1685.3L1268.69 1685.21L1268.39 1685.11L1268.09 1685.02L1267.79 1684.94L1267.49 1684.85L1267.19 1684.76L1266.89 1684.68L1266.58 1684.6L1266.28 1684.52L1265.97 1684.45L1265.67 1684.37L1265.36 1684.3L1265.05 1684.23L1264.74 1684.17L1264.43 1684.1L1264.11 1684.05L1263.8 1683.99L1263.48 1683.94L1263.16 1683.9L1262.83 1683.86L1262.51 1683.83L1262.18 1683.81L1261.84 1683.8L1261.48 1683.83L1261.06 1684.01L1260.68 1683.92L1260.3 1683.98L1259.96 1684.18L1259.74 1684.5L1259.64 1684.88L1259.71 1685.26L1259.91 1685.59Z" fill="rgb(64,19,18)"/><path d="M1395.56 1889.91L1394.73 1889.91L1393.96 1890.06L1393.2 1890.25L1392.45 1890.46L1391.7 1890.68L1390.94 1890.92L1390.19 1891.17L1389.44 1891.42L1388.69 1891.68L1387.94 1891.95L1387.2 1892.22L1386.45 1892.49L1385.7 1892.77L1384.96 1893.05L1384.21 1893.34L1383.47 1893.63L1382.73 1893.91L1381.99 1894.2L1381.26 1894.5L1380.53 1894.79L1379.8 1895.08L1379.07 1895.37L1378.35 1895.66L1377.63 1895.95L1376.91 1896.23L1376.2 1896.52L1375.5 1896.8L1374.8 1897.08L1374.1 1897.36L1373.41 1897.63L1372.73 1897.9L1372.05 1898.16L1371.38 1898.42L1370.72 1898.68L1370.06 1898.93L1369.41 1899.17L1368.77 1899.41L1368.14 1899.65L1367.51 1899.87L1366.9 1900.09L1366.29 1900.3L1365.7 1900.51L1365.11 1900.7L1364.53 1900.89L1363.97 1901.07L1363.41 1901.24L1362.87 1901.41L1362.33 1901.56L1361.8 1901.71L1361.27 1901.86L1360.75 1901.99L1360.24 1902.13L1359.73 1902.25L1359.23 1902.37L1358.74 1902.49L1358.24 1902.6L1357.75 1902.71L1357.27 1902.81L1356.79 1902.92L1356.31 1903.01L1355.83 1903.11L1355.36 1903.2L1354.89 1903.29L1354.42 1903.38L1353.95 1903.47L1353.48 1903.56L1353.01 1903.64L1352.54 1903.73L1352.07 1903.81L1351.6 1903.9L1351.13 1903.99L1350.66 1904.08L1350.19 1904.16L1349.71 1904.26L1349.24 1904.35L1348.76 1904.45L1348.29 1904.55L1347.81 1904.65L1347.32 1904.76L1346.84 1904.87L1346.35 1904.99L1345.87 1905.11L1345.38 1905.24L1344.89 1905.38L1344.39 1905.54L1343.9 1905.7L1343.4 1905.88L1342.91 1906.08L1342.42 1906.32L1341.95 1906.72L1341.58 1906.85L1341.29 1907.11L1341.12 1907.46L1341.1 1907.85L1341.23 1908.22L1341.48 1908.51L1341.84 1908.68L1342.23 1908.7L1342.77 1908.96L1343.29 1909.07L1343.79 1909.14L1344.29 1909.21L1344.79 1909.26L1345.28 1909.31L1345.77 1909.36L1346.25 1909.4L1346.74 1909.44L1347.22 1909.48L1347.7 1909.52L1348.18 1909.55L1348.66 1909.58L1349.14 1909.61L1349.63 1909.63L1350.11 1909.66L1350.6 1909.68L1351.09 1909.69L1351.58 1909.71L1352.08 1909.72L1352.57 1909.72L1353.08 1909.72L1353.58 1909.72L1354.09 1909.71L1354.61 1909.7L1355.12 1909.68L1355.65 1909.65L1356.18 1909.62L1356.71 1909.58L1357.25 1909.53L1357.79 1909.48L1358.34 1909.42L1358.9 1909.35L1359.46 1909.27L1360.03 1909.18L1360.6 1909.09L1361.18 1908.98L1361.77 1908.86L1362.36 1908.74L1362.96 1908.6L1363.57 1908.45L1364.18 1908.3L1364.8 1908.13L1365.43 1907.94L1366.06 1907.75L1366.7 1907.55L1367.35 1907.33L1368 1907.1L1368.65 1906.86L1369.31 1906.62L1369.97 1906.36L1370.63 1906.09L1371.3 1905.81L1371.97 1905.53L1372.65 1905.24L1373.32 1904.94L1374 1904.63L1374.69 1904.31L1375.37 1903.99L1376.06 1903.66L1376.75 1903.32L1377.44 1902.98L1378.14 1902.63L1378.83 1902.28L1379.52 1901.92L1380.22 1901.56L1380.92 1901.19L1381.61 1900.82L1382.31 1900.45L1383.01 1900.07L1383.71 1899.68L1384.4 1899.3L1385.1 1898.91L1385.79 1898.52L1386.48 1898.13L1387.17 1897.73L1387.86 1897.33L1388.55 1896.94L1389.23 1896.54L1389.91 1896.13L1390.59 1895.73L1391.27 1895.32L1391.93 1894.92L1392.6 1894.51L1393.26 1894.09L1393.91 1893.67L1394.56 1893.25L1395.19 1892.81L1395.81 1892.35L1396.36 1891.74L1396.68 1891.51L1396.89 1891.18L1396.96 1890.8L1396.87 1890.42L1396.65 1890.1L1396.32 1889.89L1395.94 1889.82Z" fill="rgb(64,19,18)"/></g><g clip-path="url(#kol-alt-sol-k1)"><g fill="rgb(64,19,18)" stroke="rgb(64,19,18)" stroke-width="17" stroke-linejoin="round" stroke-linecap="round"><path d="M1402.51 1949.65C1423.8 1961.4 1410.58 2029.26 1410.58 2029.26C1410.58 2029.26 1369.97 2040.38 1349.37 2041.95C1328.76 2043.52 1286.94 2038.68 1286.94 2038.68C1286.94 2038.68 1263.6 1973.6 1282.86 1958.76C1302.12 1943.92 1381.23 1937.9 1402.51 1949.65Z"/></g><path d="M1402.51 1949.65C1423.8 1961.4 1410.58 2029.26 1410.58 2029.26C1410.58 2029.26 1369.97 2040.38 1349.37 2041.95C1328.76 2043.52 1286.94 2038.68 1286.94 2038.68C1286.94 2038.68 1263.6 1973.6 1282.86 1958.76C1302.12 1943.92 1381.23 1937.9 1402.51 1949.65Z" fill="rgb(232,170,58)"/></g><g clip-path="url(#kol-alt-sol-k2)"><path d="M1402.51 1949.65C1423.8 1961.4 1410.58 2029.26 1410.58 2029.26C1410.58 2029.26 1369.97 2040.38 1349.37 2041.95C1328.76 2043.52 1286.94 2038.68 1286.94 2038.68C1286.94 2038.68 1263.6 1973.6 1282.86 1958.76C1302.12 1943.92 1381.23 1937.9 1402.51 1949.65Z" fill="rgb(196,128,36)"/><path d="M1376.51 1949.65C1397.8 1961.4 1384.58 2029.26 1384.58 2029.26 1384.58 2029.26 1343.97 2040.38 1323.37 2041.95 1302.76 2043.52 1260.94 2038.68 1260.94 2038.68 1260.94 2038.68 1237.6 1973.6 1256.86 1958.76 1276.12 1943.92 1355.23 1937.9 1376.51 1949.65Z" fill="rgb(232,170,58)"/></g><g><path d="M1371.51 1963.99L1371.41 1964.59L1371.37 1965.19L1371.34 1965.8L1371.32 1966.4L1371.31 1967L1371.3 1967.6L1371.29 1968.2L1371.28 1968.8L1371.28 1969.41L1371.28 1970.01L1371.28 1970.61L1371.28 1971.21L1371.28 1971.81L1371.28 1972.41L1371.29 1973.01L1371.29 1973.61L1371.3 1974.21L1371.31 1974.81L1371.32 1975.41L1371.32 1976.01L1371.33 1976.61L1371.35 1977.21L1371.36 1977.81L1371.37 1978.42L1371.38 1979.02L1371.4 1979.62L1371.41 1980.22L1371.43 1980.82L1371.45 1981.42L1371.46 1982.02L1371.48 1982.62L1371.5 1983.22L1371.52 1983.82L1371.54 1984.42L1371.56 1985.02L1371.58 1985.62L1371.61 1986.22L1371.63 1986.82L1371.66 1987.42L1371.68 1988.02L1371.71 1988.61L1371.73 1989.21L1371.76 1989.81L1371.79 1990.41L1371.82 1991.01L1371.84 1991.61L1371.87 1992.21L1371.91 1992.81L1371.94 1993.41L1371.97 1994.01L1372 1994.61L1372.04 1995.21L1372.07 1995.81L1372.11 1996.41L1372.14 1997.01L1372.18 1997.61L1372.22 1998.21L1372.25 1998.8L1372.29 1999.4L1372.33 2000L1372.37 2000.6L1372.41 2001.2L1372.46 2001.8L1372.5 2002.4L1372.54 2003L1372.59 2003.6L1372.63 2004.19L1372.68 2004.79L1372.72 2005.39L1372.77 2005.99L1372.82 2006.59L1372.87 2007.19L1372.92 2007.79L1372.97 2008.38L1373.02 2008.98L1373.08 2009.58L1373.13 2010.18L1373.19 2010.78L1373.24 2011.38L1373.3 2011.97L1373.36 2012.57L1373.42 2013.17L1373.49 2013.77L1373.55 2014.37L1373.62 2014.96L1373.69 2015.56L1373.77 2016.16L1373.86 2016.75L1373.95 2017.35L1374.12 2017.94L1374.31 2018.7L1374.77 2019.33L1375.44 2019.73L1376.21 2019.85L1376.97 2019.66L1377.59 2019.19L1378 2018.52L1378.11 2017.75L1378.22 2017.15L1378.26 2016.54L1378.28 2015.94L1378.3 2015.34L1378.32 2014.74L1378.33 2014.14L1378.34 2013.53L1378.34 2012.93L1378.35 2012.33L1378.35 2011.73L1378.35 2011.13L1378.35 2010.53L1378.34 2009.93L1378.34 2009.33L1378.34 2008.73L1378.33 2008.13L1378.32 2007.53L1378.32 2006.92L1378.31 2006.32L1378.3 2005.72L1378.29 2005.12L1378.28 2004.52L1378.27 2003.92L1378.25 2003.32L1378.24 2002.72L1378.23 2002.12L1378.21 2001.52L1378.19 2000.92L1378.18 2000.32L1378.16 1999.72L1378.14 1999.12L1378.12 1998.52L1378.1 1997.92L1378.08 1997.32L1378.06 1996.72L1378.04 1996.12L1378.02 1995.52L1377.99 1994.92L1377.97 1994.32L1377.94 1993.72L1377.92 1993.12L1377.89 1992.52L1377.86 1991.92L1377.84 1991.32L1377.81 1990.72L1377.78 1990.12L1377.75 1989.53L1377.72 1988.93L1377.69 1988.33L1377.65 1987.73L1377.62 1987.13L1377.59 1986.53L1377.55 1985.93L1377.52 1985.33L1377.48 1984.73L1377.45 1984.13L1377.41 1983.53L1377.37 1982.93L1377.33 1982.33L1377.29 1981.74L1377.25 1981.14L1377.21 1980.54L1377.17 1979.94L1377.13 1979.34L1377.08 1978.74L1377.04 1978.14L1376.99 1977.54L1376.95 1976.94L1376.9 1976.35L1376.85 1975.75L1376.8 1975.15L1376.75 1974.55L1376.7 1973.95L1376.65 1973.35L1376.6 1972.75L1376.55 1972.16L1376.49 1971.56L1376.44 1970.96L1376.38 1970.36L1376.32 1969.76L1376.26 1969.17L1376.2 1968.57L1376.14 1967.97L1376.07 1967.37L1376 1966.77L1375.93 1966.18L1375.85 1965.58L1375.77 1964.98L1375.67 1964.39L1375.51 1963.79L1375.32 1963.04L1374.85 1962.41L1374.19 1962.01L1373.41 1961.89L1372.66 1962.08L1372.03 1962.55L1371.63 1963.21Z" fill="rgb(64,19,18)"/><path d="M1341.6 1966.32L1341.51 1966.93L1341.49 1967.53L1341.48 1968.13L1341.48 1968.74L1341.48 1969.34L1341.49 1969.94L1341.5 1970.54L1341.51 1971.14L1341.52 1971.74L1341.53 1972.34L1341.55 1972.94L1341.57 1973.54L1341.59 1974.14L1341.61 1974.74L1341.63 1975.34L1341.65 1975.94L1341.67 1976.54L1341.7 1977.14L1341.72 1977.74L1341.75 1978.34L1341.78 1978.94L1341.8 1979.54L1341.83 1980.14L1341.86 1980.74L1341.89 1981.34L1341.92 1981.94L1341.95 1982.54L1341.99 1983.14L1342.02 1983.74L1342.05 1984.34L1342.09 1984.94L1342.12 1985.54L1342.16 1986.13L1342.2 1986.73L1342.24 1987.33L1342.27 1987.93L1342.31 1988.53L1342.35 1989.13L1342.39 1989.73L1342.44 1990.33L1342.48 1990.92L1342.52 1991.52L1342.57 1992.12L1342.61 1992.72L1342.66 1993.32L1342.7 1993.92L1342.75 1994.51L1342.8 1995.11L1342.84 1995.71L1342.89 1996.31L1342.94 1996.91L1342.99 1997.5L1343.04 1998.1L1343.09 1998.7L1343.15 1999.3L1343.2 1999.89L1343.25 2000.49L1343.31 2001.09L1343.36 2001.69L1343.42 2002.28L1343.48 2002.88L1343.54 2003.48L1343.59 2004.08L1343.65 2004.67L1343.71 2005.27L1343.77 2005.87L1343.84 2006.47L1343.9 2007.06L1343.96 2007.66L1344.03 2008.26L1344.09 2008.85L1344.16 2009.45L1344.22 2010.05L1344.29 2010.64L1344.36 2011.24L1344.43 2011.84L1344.5 2012.43L1344.57 2013.03L1344.65 2013.62L1344.72 2014.22L1344.8 2014.82L1344.88 2015.41L1344.96 2016.01L1345.04 2016.6L1345.13 2017.2L1345.21 2017.79L1345.31 2018.39L1345.41 2018.98L1345.52 2019.58L1345.7 2020.16L1345.91 2020.91L1346.39 2021.53L1347.07 2021.91L1347.85 2022.01L1348.6 2021.8L1349.21 2021.31L1349.6 2020.63L1349.69 2019.86L1349.78 2019.25L1349.8 2018.65L1349.81 2018.05L1349.81 2017.44L1349.81 2016.84L1349.81 2016.24L1349.8 2015.64L1349.79 2015.04L1349.77 2014.44L1349.76 2013.84L1349.74 2013.24L1349.73 2012.64L1349.71 2012.04L1349.69 2011.44L1349.67 2010.84L1349.64 2010.24L1349.62 2009.64L1349.6 2009.04L1349.57 2008.44L1349.54 2007.84L1349.52 2007.24L1349.49 2006.64L1349.46 2006.04L1349.43 2005.44L1349.4 2004.84L1349.37 2004.24L1349.34 2003.64L1349.31 2003.04L1349.27 2002.44L1349.24 2001.84L1349.2 2001.24L1349.17 2000.64L1349.13 2000.04L1349.09 1999.45L1349.06 1998.85L1349.02 1998.25L1348.98 1997.65L1348.94 1997.05L1348.9 1996.45L1348.86 1995.85L1348.81 1995.26L1348.77 1994.66L1348.73 1994.06L1348.68 1993.46L1348.64 1992.86L1348.59 1992.26L1348.55 1991.67L1348.5 1991.07L1348.45 1990.47L1348.4 1989.87L1348.35 1989.27L1348.3 1988.68L1348.25 1988.08L1348.2 1987.48L1348.15 1986.88L1348.09 1986.28L1348.04 1985.69L1347.98 1985.09L1347.93 1984.49L1347.87 1983.89L1347.82 1983.3L1347.76 1982.7L1347.7 1982.1L1347.64 1981.5L1347.58 1980.91L1347.52 1980.31L1347.46 1979.71L1347.39 1979.12L1347.33 1978.52L1347.27 1977.92L1347.2 1977.33L1347.14 1976.73L1347.07 1976.13L1347 1975.54L1346.93 1974.94L1346.86 1974.34L1346.79 1973.75L1346.72 1973.15L1346.65 1972.55L1346.57 1971.96L1346.49 1971.36L1346.42 1970.77L1346.34 1970.17L1346.25 1969.58L1346.17 1968.98L1346.08 1968.39L1345.98 1967.79L1345.88 1967.2L1345.77 1966.6L1345.59 1966.02L1345.38 1965.26L1344.9 1964.65L1344.22 1964.27L1343.44 1964.17L1342.69 1964.38L1342.08 1964.86L1341.7 1965.54Z" fill="rgb(64,19,18)"/><path d="M1311.69 1968.65L1311.62 1969.26L1311.62 1969.87L1311.62 1970.47L1311.64 1971.07L1311.66 1971.67L1311.68 1972.27L1311.7 1972.88L1311.73 1973.48L1311.76 1974.08L1311.79 1974.68L1311.83 1975.28L1311.86 1975.88L1311.9 1976.48L1311.93 1977.08L1311.97 1977.68L1312.01 1978.28L1312.05 1978.87L1312.09 1979.47L1312.13 1980.07L1312.17 1980.67L1312.22 1981.27L1312.26 1981.87L1312.31 1982.47L1312.35 1983.07L1312.4 1983.67L1312.45 1984.26L1312.5 1984.86L1312.55 1985.46L1312.6 1986.06L1312.65 1986.66L1312.7 1987.26L1312.75 1987.85L1312.8 1988.45L1312.86 1989.05L1312.91 1989.65L1312.97 1990.24L1313.02 1990.84L1313.08 1991.44L1313.14 1992.04L1313.2 1992.63L1313.25 1993.23L1313.31 1993.83L1313.37 1994.43L1313.44 1995.02L1313.5 1995.62L1313.56 1996.22L1313.62 1996.81L1313.69 1997.41L1313.75 1998.01L1313.82 1998.61L1313.88 1999.2L1313.95 1999.8L1314.02 2000.39L1314.09 2000.99L1314.16 2001.59L1314.22 2002.18L1314.3 2002.78L1314.37 2003.38L1314.44 2003.97L1314.51 2004.57L1314.59 2005.16L1314.66 2005.76L1314.73 2006.35L1314.81 2006.95L1314.89 2007.55L1314.96 2008.14L1315.04 2008.74L1315.12 2009.33L1315.2 2009.93L1315.28 2010.52L1315.36 2011.12L1315.45 2011.71L1315.53 2012.31L1315.62 2012.9L1315.7 2013.5L1315.79 2014.09L1315.87 2014.68L1315.96 2015.28L1316.05 2015.87L1316.15 2016.47L1316.24 2017.06L1316.33 2017.65L1316.43 2018.25L1316.53 2018.84L1316.63 2019.43L1316.74 2020.03L1316.85 2020.62L1316.96 2021.21L1317.09 2021.8L1317.29 2022.38L1317.52 2023.13L1318.02 2023.73L1318.71 2024.09L1319.49 2024.16L1320.23 2023.93L1320.83 2023.44L1321.2 2022.75L1321.27 2021.97L1321.34 2021.36L1321.34 2020.75L1321.34 2020.15L1321.32 2019.55L1321.3 2018.95L1321.28 2018.35L1321.26 2017.74L1321.23 2017.14L1321.2 2016.54L1321.17 2015.94L1321.14 2015.34L1321.1 2014.74L1321.07 2014.14L1321.03 2013.54L1320.99 2012.94L1320.95 2012.35L1320.91 2011.75L1320.87 2011.15L1320.83 2010.55L1320.79 2009.95L1320.74 2009.35L1320.7 2008.75L1320.65 2008.15L1320.61 2007.55L1320.56 2006.95L1320.51 2006.36L1320.47 2005.76L1320.42 2005.16L1320.37 2004.56L1320.32 2003.96L1320.26 2003.36L1320.21 2002.77L1320.16 2002.17L1320.1 2001.57L1320.05 2000.97L1319.99 2000.38L1319.94 1999.78L1319.88 1999.18L1319.82 1998.58L1319.77 1997.99L1319.71 1997.39L1319.65 1996.79L1319.59 1996.19L1319.53 1995.6L1319.46 1995L1319.4 1994.4L1319.34 1993.81L1319.27 1993.21L1319.21 1992.61L1319.14 1992.02L1319.08 1991.42L1319.01 1990.82L1318.94 1990.23L1318.88 1989.63L1318.81 1989.03L1318.74 1988.44L1318.67 1987.84L1318.59 1987.24L1318.52 1986.65L1318.45 1986.05L1318.38 1985.46L1318.3 1984.86L1318.23 1984.27L1318.15 1983.67L1318.07 1983.07L1318 1982.48L1317.92 1981.88L1317.84 1981.29L1317.76 1980.69L1317.68 1980.1L1317.6 1979.5L1317.51 1978.91L1317.43 1978.31L1317.35 1977.72L1317.26 1977.12L1317.17 1976.53L1317.09 1975.94L1317 1975.34L1316.91 1974.75L1316.82 1974.15L1316.72 1973.56L1316.63 1972.97L1316.53 1972.37L1316.43 1971.78L1316.33 1971.19L1316.23 1970.59L1316.12 1970L1316 1969.41L1315.87 1968.82L1315.67 1968.24L1315.44 1967.49L1314.94 1966.89L1314.25 1966.53L1313.48 1966.46L1312.73 1966.69L1312.13 1967.18L1311.77 1967.88Z" fill="rgb(64,19,18)"/></g></g></svg>